<svg width="94" height="109" viewBox="0 0 94 109" fill="none" xmlns="http://www.w3.org/2000/svg">
<path d="M0 4.85578C0.663339 3.21694 1.40467 1.57819 3.12155 0.797789C3.97999 0.407589 4.99451 0.0173422 5.93099 0.0173422C31.0598 -0.0216777 56.2276 0.0173422 81.3565 0.0173422C84.439 0.0173422 87.0534 2.51459 87.2485 5.59716C87.2485 6.02638 87.2876 6.45567 87.2876 6.88489C87.2876 24.5999 87.2876 42.2759 87.2876 59.991C87.2876 61.8249 86.7023 62.8395 85.4536 63.2297C83.8148 63.7369 82.2149 62.6834 81.9808 60.9275C81.9418 60.5763 81.9808 60.2251 81.9808 59.8739C81.9808 42.2759 81.9808 24.6779 81.9808 7.07994C81.9808 5.32404 81.9808 5.32412 80.303 5.32412C55.8765 5.32412 31.45 5.32412 6.98448 5.32412C5.34565 5.32412 5.30665 5.32409 5.30665 7.00194C5.30665 38.6861 5.30665 70.3703 5.30665 102.016C5.30665 103.654 5.30663 103.693 6.98448 103.693C22.3193 103.693 37.6151 103.693 52.95 103.693C54.7839 103.693 55.9545 104.552 56.1106 106.152C56.2276 107.556 55.4082 108.376 54.2766 109H4.91643C4.37015 108.766 3.82394 108.571 3.27766 108.298C1.52176 107.439 0.663339 105.839 0 104.084V4.89483V4.85578Z" fill="white"/>
<path d="M88.0291 83.9103C88.4973 85.1589 88.9265 86.2124 89.3557 87.422C90.0581 87.422 90.8775 87.422 91.697 87.422C92.9066 87.422 93.6089 88.1245 93.6089 89.3341C93.6089 90.4267 93.6089 91.5191 93.6089 92.6507C93.6089 93.7823 92.9456 94.5627 91.814 94.4066C89.746 94.0945 88.4973 94.7578 88.0291 96.8649C87.9901 97.1381 87.7559 97.3721 87.5218 97.7623C88.1071 98.3086 88.6924 98.8159 89.2387 99.4012C90.1362 100.338 90.1362 101.157 89.2387 102.094C88.4973 102.874 87.7559 103.615 86.9755 104.357C86.039 105.254 85.2196 105.254 84.2831 104.357C83.6588 103.771 83.1126 103.147 82.5273 102.523C81.3567 102.952 80.3031 103.342 79.0935 103.81C79.0935 104.552 79.0935 105.293 79.0935 106.074C79.0935 107.361 78.3911 108.025 77.1034 108.064C76.0499 108.064 74.9573 108.064 73.9038 108.064C72.7332 108.064 71.9138 107.361 72.1089 106.23C72.421 104.201 71.7187 102.991 69.6897 102.523C69.3775 102.445 69.1434 102.25 68.5971 101.937C68.1289 102.484 67.6606 103.147 67.1143 103.693C66.1779 104.63 65.3195 104.63 64.344 103.693C63.6026 102.991 62.8612 102.25 62.1588 101.508C61.2224 100.572 61.2224 99.7133 62.1588 98.7378C62.7441 98.1135 63.4075 97.5673 63.9537 97.021C63.5635 95.9675 63.2514 95.031 62.8612 94.0945C62.7441 93.8604 62.3539 93.7433 62.1198 93.5482C62.0808 93.5482 61.9638 93.5482 61.9247 93.5482C58.491 93.4702 58.4519 93.4311 58.4519 89.9974C58.4519 86.5636 58.4519 86.5247 61.9637 86.5247C62.7051 86.5247 63.0953 86.3685 63.3294 85.5881C63.5635 84.7687 63.9928 84.0274 64.461 83.0909C63.9537 82.6226 63.3684 82.1544 62.8221 81.6081C61.8856 80.6326 61.8856 79.8132 62.8221 78.8377C63.5635 78.0963 64.3049 77.3159 65.0853 76.5745C66.0218 75.677 66.8412 75.677 67.7777 76.5745C68.402 77.1598 68.9483 77.7842 69.5336 78.3695C70.5871 78.0183 71.5626 77.7061 72.46 77.3159C72.6942 77.1988 72.9283 76.8476 72.9673 76.5745C73.0454 75.9502 72.9673 75.2869 72.9673 74.6626C73.0063 73.609 73.6307 72.9456 74.6842 72.9066C75.8548 72.9066 77.0254 72.9066 78.196 72.9066C79.2495 72.9066 80.0689 73.609 79.9129 74.6235C79.5617 76.7696 80.3811 77.9793 82.4491 78.4866C82.7223 78.5646 82.9564 78.7206 83.3466 78.9157C83.8539 78.3304 84.3611 77.7451 84.9074 77.1988C85.8439 76.3014 86.7023 76.3014 87.5998 77.1988C88.3802 77.9402 89.1216 78.6817 89.863 79.4621C90.7605 80.3985 90.7604 81.2569 89.824 82.2324C89.2387 82.8177 88.5754 83.3639 88.0291 83.8712V83.9103ZM69.1044 90.5437C69.1824 94.5237 72.226 97.4892 76.206 97.4502C80.069 97.4112 83.1126 94.2506 83.0345 90.2705C82.9565 86.4856 79.8348 83.481 76.0109 83.52C72.1089 83.5591 69.0653 86.6807 69.1433 90.5046L69.1044 90.5437Z" fill="white"/>
<path d="M16.9351 23.3903H24.6609V24.5609C24.6609 35.4085 24.6609 46.256 24.6609 57.1035C24.6609 58.1181 24.3878 58.4302 23.3733 58.3911C21.2662 58.3131 19.1202 58.3911 16.9351 58.3911V23.3903Z" fill="white"/>
<path d="M56.8522 13.1671C57.2424 15.8595 57.8277 18.5128 58.0228 21.2052C58.2569 24.2878 59.3494 26.9021 60.9883 29.4774C62.354 31.6625 63.5637 33.9258 64.8513 36.1499C60.9103 38.7643 55.0573 38.413 51.0773 35.3695C46.8241 32.1308 45.1072 26.551 46.8241 21.4004C48.2679 17.0692 52.8331 13.2842 56.8522 13.2062V13.1671Z" fill="white"/>
<path d="M16.896 75.0919V69.2389C17.3252 69.2389 17.6763 69.1609 18.0665 69.1609C29.3823 69.1609 40.6591 69.1609 51.9749 69.1609C52.9894 69.1609 53.2235 69.4731 53.1845 70.4096C53.1064 71.9313 53.1845 73.453 53.1845 75.0919H16.896Z" fill="white"/>
<path d="M30.709 33.6138H38.2789V58.3524H30.709V33.6138Z" fill="white"/>
<path d="M42.4932 85.1199C42.4932 86.9148 42.4932 88.6707 42.4932 90.3876C42.4932 90.5827 41.9469 90.9729 41.6738 90.9729C38.8644 91.0119 36.094 91.012 33.2845 91.051C28.0559 91.051 22.7882 91.051 17.5595 91.051C17.4034 91.051 17.2082 91.0509 16.9741 91.0119V85.1589H42.5712L42.4932 85.1199Z" fill="white"/>
<path d="M44.4824 58.3133V48.1681H52.0912V58.3133H44.4824Z" fill="white"/>
<path d="M67.6995 35.6424C65.5144 32.3648 63.4463 29.2431 61.2612 25.9655H72.8502C72.7721 30.0625 71.0162 33.1842 67.6995 35.6424Z" fill="white"/>
<path d="M62.1589 23.9757C60.0908 24.0537 60.0908 24.0537 59.9738 22.2588C59.7787 18.786 59.6225 15.3522 59.3884 11.8795C59.3104 10.904 59.7007 10.6698 60.5981 10.7088C67.3486 10.9429 72.4211 15.5083 73.3576 22.2197C73.4356 22.8831 73.2406 23.1953 72.5382 23.2343C70.08 23.3904 67.5826 23.5854 65.1243 23.7805C64.0318 23.8585 62.9393 23.9367 62.1589 23.9757ZM71.6798 21.7515C71.4066 15.8985 64.422 10.8649 60.7932 11.8404C60.9883 15.4302 61.1833 19.0591 61.3784 22.6879C64.8902 22.3758 68.246 22.0637 71.6798 21.7515Z" fill="white"/>
<path d="M58.1394 52.9675H65.8653V58.4302C64.1094 58.4302 62.3536 58.4302 60.5977 58.4302C58.9328 58.4302 58.1003 57.5979 58.1003 55.933C58.1003 54.9965 58.1003 54.021 58.1003 52.9675H58.1394Z" fill="white"/>
</svg>
