<svg width="110" height="109" viewBox="0 0 110 109" fill="none" xmlns="http://www.w3.org/2000/svg">
<path d="M0.242419 61.9051C0.242419 35.9071 21.4812 14.7393 47.4437 14.8104C51.4571 14.8104 55.3284 15.3431 59.0577 16.302V15.9114C40.0208 10.939 17.8941 18.3265 6.52879 37.825C-4.83647 57.288 -1.0717 81.4392 15.55 96.7113C23.7188 104.241 34.0895 108.361 44.6734 108.929C19.9895 107.579 0.206868 86.9442 0.206868 61.9406L0.242419 61.9051Z" fill="white"/>
<path d="M46.9111 109C46.3783 109 45.8101 109 45.2773 108.964C45.8101 108.964 46.3783 109 46.9111 109Z" fill="white"/>
<path d="M56.5005 108.077C56.0388 108.183 55.5415 108.254 55.0798 108.325C55.5415 108.254 56.0388 108.148 56.5005 108.077Z" fill="white"/>
<path d="M59.1997 107.473C64.5982 106.088 69.8191 103.708 74.6138 100.334C93.2245 87.1929 97.3443 65.4923 93.1889 50.3978H93.0113C93.9348 54.0915 94.432 57.9984 94.432 61.9762C94.3965 83.7478 79.3731 102.181 59.1997 107.473Z" fill="white"/>
<path d="M58.8097 107.544C58.2769 107.686 57.7086 107.793 57.1404 107.935C57.7086 107.828 58.2414 107.686 58.8097 107.544Z" fill="white"/>
<path d="M51.3857 108.787C50.924 108.822 50.4622 108.858 50.0005 108.893C50.4622 108.893 50.924 108.822 51.3857 108.787Z" fill="white"/>
<path d="M109.491 27.4187V19.25H90.2764V0H82.072V19.25H67.2617C71.7368 21.3454 75.8212 24.1157 79.3728 27.4543H82.1076V30.2245C85.4816 33.9182 88.2519 38.1802 90.3119 42.7973V27.4187H109.455H109.491Z" fill="white"/>
<path d="M34.7997 56.5777C31.9939 56.5067 29.5077 58.8863 29.3657 61.6921C29.2236 64.5689 31.7098 67.1616 34.5866 67.2327C37.3924 67.3037 39.8785 64.9241 40.0206 62.1183C40.1627 59.2414 37.6765 56.6488 34.7997 56.5777Z" fill="white"/>
<path d="M70.5297 61.8341C70.4942 64.6399 72.8383 67.126 75.6796 67.2326C78.5565 67.3746 81.1491 64.8885 81.2202 61.9762C81.2557 59.1704 78.9117 56.6842 76.0704 56.5776C73.1935 56.4356 70.6007 58.9217 70.5297 61.8341Z" fill="white"/>
<path d="M59.2002 107.473C59.2002 107.473 58.9515 107.544 58.845 107.579C58.9515 107.579 59.0936 107.508 59.2002 107.473Z" fill="white"/>
<path d="M50.0005 108.894C49.7163 108.894 49.3967 108.894 49.1125 108.929C49.3967 108.929 49.7163 108.929 50.0005 108.894Z" fill="white"/>
<path d="M52.3097 108.716C51.99 108.716 51.7059 108.787 51.3862 108.787C51.7059 108.787 51.99 108.751 52.3097 108.716Z" fill="white"/>
<path d="M78.2724 31.1836H59.058V16.3022C55.3287 15.3432 51.4574 14.8105 47.444 14.8105C21.446 14.7394 0.207204 35.9428 0.24272 61.9053C0.24272 86.9444 20.0253 107.544 44.7093 108.894C44.8869 108.894 45.0645 108.894 45.2776 108.894C45.8103 108.894 46.3785 108.929 46.9113 108.929C47.1599 108.929 47.444 108.929 47.6926 108.929C48.1544 108.929 48.6161 108.929 49.1133 108.929C49.3974 108.929 49.7171 108.929 50.0012 108.894C50.4629 108.894 50.9247 108.823 51.3864 108.787C51.706 108.787 51.9902 108.751 52.3099 108.716C52.9847 108.645 53.6239 108.574 54.2632 108.467C54.5473 108.432 54.796 108.361 55.0801 108.325C55.5418 108.254 56.0391 108.148 56.5008 108.077C56.7139 108.041 56.9625 107.97 57.1756 107.935C57.7439 107.828 58.2766 107.686 58.8449 107.544C58.9514 107.544 59.0935 107.473 59.2001 107.437C79.3734 102.145 94.3968 83.7124 94.4323 61.9408C94.4323 57.9629 93.9351 54.0561 93.0117 50.3624H78.3078V31.148L78.2724 31.1836ZM15.0176 67.2682C18.001 67.2682 20.6647 67.2682 23.3284 67.2682C24.5715 67.2682 25.6724 67.5169 25.708 68.9731C25.779 70.5713 24.678 70.8909 23.3284 70.8909C20.1319 70.8909 16.9354 70.8909 13.7034 70.8909C12.1051 70.8909 11.3948 70.2161 11.3948 68.6179C11.3948 64.1428 11.3948 59.6677 11.3948 55.1927C11.3948 53.8786 11.8565 52.9196 13.2772 52.9907C14.7334 53.0617 15.0176 54.0916 15.0176 55.3347M34.4805 70.8554C29.5437 70.7844 25.6724 66.8066 25.708 61.7987C25.708 56.7554 29.7569 52.8486 34.8713 52.9196C39.808 52.9907 43.6793 56.9685 43.6438 61.9763C43.6438 67.0197 39.5949 70.9265 34.4805 70.8554ZM55.7194 70.8554C50.9247 70.9975 46.8047 67.5879 46.343 63.1128C45.6327 56.5423 51.5995 51.3924 57.7439 53.2748C58.9869 53.6654 60.4075 54.1272 59.9813 55.7609C59.5551 57.5368 58.1345 57.2526 56.7139 56.8619C53.6239 56.0096 50.8536 57.7143 50.1077 60.8043C49.4329 63.6456 51.3153 66.4869 54.3342 67.1262C56.7138 67.6234 58.8448 66.4514 60.1234 63.7166C58.4897 63.7166 57.0335 63.9297 55.6838 63.6456C54.9025 63.468 53.766 62.6511 53.6239 61.9408C53.3398 60.5556 54.4764 60.094 55.755 60.094C57.8504 60.094 59.9103 60.094 62.0058 60.094C63.7816 60.094 64.3144 61.0174 64.2433 62.6511C64.0658 66.9131 60.159 70.7134 55.7194 70.8554ZM84.8074 61.9408C84.8074 66.9131 80.9006 70.8554 75.9283 70.8554C70.8494 70.8554 66.8716 66.9486 66.9071 61.8698C66.9071 56.8975 70.8139 52.9551 75.7862 52.9551C80.865 52.9551 84.8429 56.8619 84.8074 61.9408Z" fill="white"/>
<path d="M62.8933 27.4898H79.4084C75.8213 24.1512 71.737 21.3809 67.2974 19.2855H62.9289V27.4898H62.8933Z" fill="white"/>
<path d="M82.1431 46.5976H90.3474V42.7973C88.2874 38.1802 85.5171 33.9183 82.1431 30.2245V46.5976Z" fill="white"/>
</svg>
