<svg width="115" height="109" viewBox="0 0 115 109" fill="none" xmlns="http://www.w3.org/2000/svg">
<path d="M112.896 0.04056C114.03 0.607846 114.476 1.53979 114.395 2.79592C114.314 4.82194 114.395 6.84796 114.395 8.87398C114.395 11.0216 113.747 11.7104 111.518 11.7104C111.315 11.7104 111.113 11.7104 110.708 11.7104V13.0476C110.708 28.0807 110.708 43.1138 110.708 58.1063C110.708 61.1048 109.573 62.2394 106.615 62.2394C99.9697 62.2394 93.2839 62.2394 86.6385 62.2394H85.3014V66.3725H80.8036V72.491C80.8036 72.491 80.6415 72.572 80.601 72.6126C80.3174 72.2479 80.0742 71.8832 79.7905 71.478C77.4809 68.3579 74.523 66.2104 70.633 65.6836C65.6085 64.9948 61.6374 66.9803 58.5173 70.7892C57.6259 71.8833 56.9776 73.1393 56.2888 74.3955C56.0051 74.8817 55.8026 75.1654 55.1947 75.1654C52.9256 75.1654 50.6564 75.2464 48.3872 75.1248C47.1311 75.0438 45.9156 74.4766 44.6594 74.436C42.9981 74.436 41.2961 74.6792 39.6348 74.8413C38.3787 74.9628 37.1226 75.1248 35.7854 75.2869V66.4535H31.1661V62.2799H29.8289C23.1025 62.2799 16.3762 62.2394 9.60929 62.2799C7.42119 62.2799 5.67872 61.0643 5.71924 58.3494C5.80028 43.2353 5.71924 28.1617 5.71924 13.0476C5.71924 12.6424 5.71924 12.1967 5.71924 11.6699C5.19247 11.6699 4.74672 11.6699 4.301 11.6699C2.92331 11.6294 1.99139 10.819 1.95087 9.44126C1.91035 7.05056 1.95087 4.61934 1.95087 2.22863C1.95087 1.21562 2.59922 0.567286 3.36911 0H112.896V0.04056ZM89.3534 58.3089H106.777V11.9941H9.64972V58.3089H27.1546C27.1141 57.62 27.033 57.0122 27.033 56.445C27.033 54.0543 27.033 51.704 27.033 49.3133C27.033 47.3684 27.3977 47.0037 29.3021 47.0037C48.5088 47.0037 67.7155 47.0037 86.9222 47.0037C87.2869 47.0037 87.6516 47.0037 87.9757 47.0037C88.8267 47.0442 89.3534 47.5305 89.3534 48.3409C89.3534 51.6636 89.3534 54.9457 89.3534 58.3089Z" fill="white"/>
<path d="M110.951 108.878H0.0875266C-0.398718 105.353 1.14099 101.747 4.70679 100.653C6.00344 100.248 7.38118 99.9639 8.67783 99.5587C9.52876 99.3156 10.3797 98.9914 11.1091 98.5457C12.7704 97.5327 13.2972 95.6283 12.4868 93.8454C11.7574 92.2652 11.028 90.7254 10.2986 89.1451C9.52874 87.4027 9.3667 85.7008 10.2176 83.9179C10.4202 83.4722 10.5012 82.9859 10.5417 82.4997C10.5823 81.6082 10.5417 80.7167 10.5417 79.8253C10.5417 77.4751 11.5548 75.6517 13.4998 74.3956C16.9035 72.167 22.0495 72.6126 24.7239 75.368C25.8584 76.5431 26.4662 77.9209 26.4662 79.5417C26.4662 80.4737 26.4662 81.4057 26.4662 82.2971C26.4662 82.8239 26.5473 83.3912 26.7905 83.8369C27.8035 85.6198 27.5197 87.4027 26.7093 89.1451C25.98 90.7254 25.1697 92.2246 24.3998 93.8049C23.7109 95.2231 23.7919 95.993 24.967 97.006C25.9395 97.8164 26.993 98.5863 28.1276 99.1131C30.5588 100.207 33.0306 101.139 35.5023 102.071C35.786 102.193 36.2317 102.112 36.4748 101.99C37.0421 101.666 37.6499 101.301 38.1361 100.855C39.1897 99.964 39.2708 99.2751 38.7035 98.0595C38.2172 96.9654 37.6499 95.8714 37.1637 94.7773C36.6369 93.6428 36.637 92.4677 37.0827 91.2926C37.3663 90.5228 37.4068 89.6312 37.4068 88.8208C37.4068 85.7413 39.2707 83.5937 42.3503 83.5127C43.5659 83.5127 44.8625 83.6343 45.9565 84.08C47.8205 84.8094 48.7525 86.3085 48.793 88.4156C48.793 89.5502 49.2387 90.6849 49.2792 91.8194C49.3198 92.8324 49.2793 93.8859 48.9551 94.8179C48.5904 95.9119 47.9421 96.925 47.4559 97.9785C46.6455 99.5993 47.2533 101.18 48.9551 101.828C49.6845 102.112 50.4544 102.152 51.2243 102.395C52.3993 102.8 53.5339 103.287 54.8305 103.773C56.2082 103.246 57.8696 102.638 59.4905 102.031C60.3819 101.706 61.3138 101.463 62.1647 101.058C64.758 99.9235 65.4469 98.5863 64.9202 95.5878C62.7726 95.5878 60.5844 95.5878 58.3963 95.5878C55.9651 95.5878 55.9246 95.5877 57.1402 93.4807C58.5989 90.9279 59.2472 88.0915 59.6525 85.2146C60.0982 82.2971 61.0301 79.5822 63.0561 77.3536C66.4599 73.6663 71.3629 73.7878 74.6045 77.5967C76.4279 79.7443 77.4409 82.3376 77.8866 85.093C78.3729 88.2536 79.2238 91.2115 80.8041 94.0074C81.4524 95.142 81.2094 95.5067 79.8722 95.5472C77.8867 95.5878 75.9012 95.5472 73.9157 95.5472C73.5105 95.5472 73.0648 95.5472 72.6596 95.5472C71.9302 98.1 72.6595 99.802 74.9692 100.815C76.6305 101.504 78.3729 102.03 80.0748 102.598C80.2774 102.679 80.5611 102.598 80.7637 102.557C82.5466 101.95 84.3294 101.261 86.1123 100.693C87.6926 100.207 89.1918 99.6399 89.6781 97.8975C89.8807 97.2492 89.7997 96.3982 89.5565 95.7903C88.9892 94.2911 88.26 92.8728 87.6116 91.4546C86.8823 89.9149 86.8011 88.3752 87.4899 86.7544C87.8546 85.9034 87.8547 84.8904 87.8547 83.9585C87.8547 79.4202 91.0557 76.4621 95.594 77.0294C96.7691 77.1915 97.9848 77.5156 99.0383 78.0424C101.105 79.0554 102.077 80.8383 102.118 83.1074C102.118 84.6472 102.037 86.187 102.766 87.6863C103.374 88.9424 102.847 90.2795 102.32 91.4546C101.713 92.7513 101.064 93.9669 100.416 95.2636C99.4435 97.2085 100.092 99.1131 102.118 99.9235C103.171 100.329 104.306 100.531 105.4 100.774C108.642 101.423 110.263 103.125 110.627 106.407C110.708 107.258 110.749 108.068 110.83 109L110.951 108.878Z" fill="white"/>
</svg>
