<svg width="113" height="83" viewBox="0 0 113 83" fill="none" xmlns="http://www.w3.org/2000/svg">
<path d="M113 5.73855V69.3187C113 69.3187 112.848 69.5087 112.81 69.5847C111.632 73.3091 109.275 75.0572 105.398 75.0572C92.2092 75.0572 78.9822 75.0572 65.7931 75.0572H64.5008V79.4657C67.1234 79.4657 69.67 79.4657 72.1786 79.4657C73.2048 79.4657 73.889 79.9217 74.079 80.9098C74.3451 82.1259 73.4709 83 72.0646 83C66.4013 83 60.738 83 55.0747 83C50.3616 83 45.6485 83 40.9354 83C39.5291 83 38.7689 82.3539 38.8069 81.2138C38.8069 80.1117 39.5671 79.5037 40.8974 79.4657C41.6956 79.4657 42.5318 79.4657 43.33 79.4657C45.0404 79.4657 46.7508 79.4657 48.4612 79.4657V75.0572C47.701 75.0572 47.0548 75.0572 46.4087 75.0572C33.2577 75.0572 20.1446 75.0572 6.99361 75.0572C3.15473 75.0572 0 71.9789 0 68.1786C0 47.7326 0 27.3246 0 6.91667C0 3.1543 3.15473 0 6.87958 0C39.9472 0 73.0148 0 106.082 0.0380037C107.375 0.0380037 108.743 0.608059 109.883 1.21612C111.632 2.12821 112.392 3.91438 113 5.70055V5.73855ZM78.5641 7.06868C72.9008 7.06868 67.2375 7.06868 61.5742 7.06868C58.7235 7.06868 57.3932 8.43681 57.3932 11.2491C57.3932 19.3819 57.3932 27.5147 57.3932 35.6474C57.3932 38.3077 58.8375 39.7138 61.4982 39.7138C72.9008 39.7138 84.3034 39.7138 95.706 39.7138C98.3666 39.7138 99.773 38.3077 99.773 35.6094C99.773 27.4766 99.773 19.3439 99.773 11.2111C99.773 8.39881 98.3666 7.03068 95.554 7.03068C89.8907 7.03068 84.2274 7.03068 78.5641 7.03068V7.06868ZM3.57282 68.0266C3.87689 70.3828 5.2072 71.4849 7.63976 71.4849C29.3428 71.4849 51.0457 71.4849 72.7487 71.4849C83.6572 71.4849 94.6038 71.4849 105.512 71.4849C107.831 71.4849 109.199 70.2688 109.427 68.0266H3.57282ZM43.2159 57.3475C39.073 50.5069 35.0441 43.8182 30.9011 37.0156C26.7201 43.8942 22.6912 50.5829 18.5863 57.3475H43.1779H43.2159ZM45.0024 13.9473C44.7743 14.2134 44.6983 14.3274 44.6223 14.4414C40.8974 20.598 37.1726 26.7546 33.4097 32.8732C33.0296 33.4812 33.2196 33.8613 33.5237 34.3553C37.1726 40.3599 40.7834 46.3265 44.4322 52.331C44.5843 52.5591 44.7363 52.7871 45.0024 53.2051V13.9473ZM16.7999 53.2431C17.1419 52.7111 17.37 52.4071 17.56 52.103C21.1329 46.2505 24.6677 40.3599 28.2785 34.5073C28.6966 33.8233 28.6966 33.3292 28.2785 32.6451C24.6297 26.7546 21.0568 20.788 17.446 14.8974C17.294 14.6314 17.1039 14.4034 16.7999 13.9853V53.2431ZM19.0804 10.641C23.0713 17.1777 26.9482 23.5623 30.9011 30.1369C34.892 23.5623 38.7309 17.1777 42.6838 10.641H19.0804ZM78.6021 43.2862C72.4067 43.2862 66.2492 43.2862 60.0538 43.2862C58.2674 43.2862 57.3932 43.8942 57.3932 45.0723C57.3932 46.2505 58.3054 46.8205 60.0918 46.8205C72.4447 46.8205 84.7975 46.8205 97.1504 46.8205C97.4544 46.8205 97.7585 46.8205 98.0246 46.8205C98.9748 46.7065 99.735 45.9844 99.735 45.1103C99.735 44.1983 99.0128 43.4382 97.9865 43.3242C97.6825 43.3242 97.4164 43.3242 97.1123 43.3242C90.9169 43.3242 84.7595 43.3242 78.5641 43.3242L78.6021 43.2862ZM78.6021 50.3549C72.3687 50.3549 66.1732 50.3549 59.9398 50.3549C59.5977 50.3549 59.2556 50.3549 58.9516 50.3929C58.0014 50.5829 57.4312 51.1909 57.4312 52.141C57.4312 53.0531 58.0013 53.6232 58.9136 53.8132C59.2556 53.8892 59.6357 53.8512 60.0158 53.8512C65.6411 53.8512 71.2664 53.8512 76.8917 53.8512C83.7333 53.8512 90.5748 53.8512 97.4164 53.8512C98.0626 53.8512 98.8988 53.5472 99.3549 53.0911C99.6969 52.7871 99.735 51.913 99.5449 51.381C99.2788 50.5069 98.4427 50.3168 97.5685 50.3168C91.259 50.3168 84.9115 50.3168 78.6021 50.3168V50.3549ZM78.6021 57.4235C72.4447 57.4235 66.3253 57.4235 60.1678 57.4235C59.8258 57.4235 59.5217 57.4235 59.1796 57.4235C58.1534 57.5375 57.3932 58.2976 57.4312 59.2097C57.4312 60.0838 58.1534 60.8059 59.1416 60.9199C59.4077 60.9199 59.6737 60.9199 59.9018 60.9199C69.9741 60.9199 80.0464 60.9199 90.1187 60.9199C92.7033 60.9199 95.2499 60.9199 97.8345 60.9199C98.9368 60.9199 99.735 60.1598 99.773 59.1717C99.773 58.2216 99.0128 57.4615 97.9105 57.3855C97.6065 57.3855 97.3404 57.3855 97.0363 57.3855C90.8789 57.3855 84.7595 57.3855 78.6021 57.3855V57.4235ZM60.89 75.1332H52.186V79.3896H60.89V75.1332Z" fill="#FCFCFC"/>
</svg>
