<svg width="109" height="109" viewBox="0 0 109 109" fill="none" xmlns="http://www.w3.org/2000/svg">
<path d="M54.6668 0.000167768C24.5723 -0.0739567 0 24.4242 0 54.5187C0 84.502 24.4981 109 54.4444 109C84.3907 109 108.926 84.5391 109 54.5928C109.037 24.6095 84.6131 0.0742922 54.6668 0.000167768ZM26.6848 64.8961C22.9786 64.8961 19.2724 64.8961 15.5661 64.8961C13.7501 64.8961 12.8977 64.0807 12.8977 62.2647C12.8977 57.076 12.8977 51.9243 12.8977 46.7356C12.8977 45.2161 13.4165 44.1413 15.0843 44.1783C16.7521 44.2525 17.0857 45.4755 17.0857 46.9209C17.0857 51.4055 17.0857 55.8529 17.0857 60.7081C20.5325 60.7081 23.6086 60.7081 26.6848 60.7081C28.1302 60.7081 29.3903 61.0046 29.4645 62.6724C29.5386 64.5255 28.2785 64.8961 26.6848 64.8961ZM39.6195 64.8961C33.9119 64.822 29.4274 60.2263 29.4645 54.4075C29.4645 48.5517 34.1343 44.0672 40.0643 44.1413C45.7719 44.2154 50.2564 48.8111 50.2193 54.6299C50.2193 60.4857 45.5495 64.9702 39.6195 64.8961ZM64.1918 64.8961C58.6695 65.0814 53.8885 61.1158 53.3325 55.9271C52.5172 48.3293 59.4478 42.3252 66.4896 44.549C67.9351 44.9937 69.5658 45.5496 69.084 47.4398C68.5651 49.4782 66.9714 49.1817 65.3036 48.737C61.7457 47.7363 58.5213 49.7377 57.6318 53.2956C56.8535 56.5571 59.0401 59.8557 62.524 60.5969C65.2666 61.1899 67.7497 59.8186 69.1952 56.6312C67.305 56.6312 65.6001 56.8536 64.0435 56.5571C63.117 56.3718 61.8198 55.4082 61.6715 54.5928C61.375 52.9991 62.6722 52.4432 64.1547 52.4432C66.5638 52.4432 68.9728 52.4432 71.3818 52.4432C73.4573 52.4432 74.0503 53.518 73.9762 55.4082C73.7909 60.3375 69.2322 64.7479 64.1176 64.8961H64.1918ZM97.8813 54.5558C97.8813 60.3004 93.3597 64.8591 87.578 64.8961C81.6851 64.8961 77.0894 60.3745 77.1265 54.4816C77.1265 48.737 81.6481 44.1783 87.4298 44.1413C93.3227 44.1413 97.9184 48.6629 97.8813 54.5558Z" fill="#FCFCFC"/>
</svg>
