<svg width="133" height="109" viewBox="0 0 133 109" fill="none" xmlns="http://www.w3.org/2000/svg">
<path d="M92.6372 96.0773C97.6022 96.1146 102.492 95.6299 107.307 94.5115C114.754 92.7592 120.471 88.7329 124.383 82.1714C126.941 77.8468 128.897 73.2984 130.175 68.4891C130.664 66.7369 131.078 64.9474 131.341 63.1579C131.68 60.8092 130.439 59.5417 128.069 59.8026C127.618 59.8399 127.166 59.989 126.715 60.1008C123.443 61.0701 120.96 63.1207 118.967 65.7676C117.688 67.4453 116.484 69.1975 115.205 70.8752C113.475 73.1493 111.67 75.3116 109.45 77.1384C106.253 79.7854 102.68 80.4564 98.7307 79.1143C96.5867 78.4059 94.5555 77.4739 92.5244 76.5419C90.1924 75.4607 87.8604 74.305 85.3779 73.4848C85.077 73.3729 84.7384 73.2984 84.7761 72.8511C84.8137 72.3664 85.2275 72.4036 85.566 72.3291C85.6789 72.3291 85.7917 72.3291 85.9045 72.3291C89.1769 72.1054 92.4869 71.8445 95.7592 71.4344C98.3922 71.0988 100.95 70.5396 103.244 69.1975C105.351 67.9672 106.253 66.0285 105.877 63.6053C105.351 60.3991 103.282 58.5351 99.6334 57.864C95.9849 57.193 92.2987 57.5657 88.6502 57.7894C84.3999 58.0504 80.1873 58.0504 76.0122 57.2302C71.5738 56.3727 67.1731 55.3288 62.7723 54.285C55.0992 52.4955 47.9902 53.6512 41.1821 57.5284C37.7217 59.5043 34.487 61.8158 31.2522 64.2018C26.4377 67.7808 21.9617 71.7326 16.8463 74.9388C15.3793 75.8708 15.2289 77.8094 16.4326 79.077C17.2601 79.9717 18.1628 80.7919 19.0279 81.6494C23.1654 85.7503 27.3028 89.8885 31.4403 93.9895C32.5311 95.0706 33.6218 95.3689 34.8255 94.8097C39.828 92.4609 45.1692 91.6408 50.6231 91.6781C58.3715 91.7526 65.9318 93.0575 73.5673 94.2133C79.8488 95.1453 86.1677 96.04 92.5244 96.04L92.6372 96.0773ZM70.671 52.5327C78.1561 54.8815 85.754 54.8069 93.3896 54.0986C93.5776 54.0986 93.6905 54.0986 93.7657 53.8376C94.0666 53.0174 93.6905 52.3837 92.8254 52.16C89.3273 51.3025 86.9201 49.1774 85.5284 45.8967C85.2275 45.1883 85.2651 44.8528 86.0926 44.5918C87.5219 44.1444 88.9512 43.5853 90.3429 43.0261C91.0952 42.6905 91.3584 42.9142 91.6969 43.5853C93.1638 46.7169 97.0004 48.0218 100.085 46.4187C101.401 45.7476 102.041 44.6292 102.078 43.1752C102.078 41.7958 101.439 40.8265 100.16 40.23C98.9563 39.6707 97.6774 39.186 96.3986 38.7759C94.2546 38.0676 92.1107 37.4338 90.1172 36.3527C86.2806 34.2649 84.5128 30.3504 85.566 26.1377C86.544 22.2604 89.064 19.9117 93.0134 19.0169C93.5776 18.9051 93.7657 18.6814 93.7657 18.1222C93.7281 17.1156 93.7657 16.109 93.7657 15.1024C93.7657 14.6551 93.9162 14.5059 94.3675 14.5059C96.1354 14.5059 97.8656 14.5059 99.6334 14.5059C100.16 14.5059 100.273 14.6923 100.273 15.177C100.273 16.1463 100.31 17.0783 100.273 18.0476C100.235 18.7186 100.461 18.9051 101.1 19.0542C104.786 19.8744 107.269 22.1112 108.661 25.6157C108.849 26.1003 108.849 26.3613 108.247 26.5477C106.742 27.0696 105.238 27.6289 103.733 28.2254C103.056 28.5236 102.755 28.449 102.417 27.7034C100.95 24.5345 97.339 23.2297 94.1419 24.7583C92.7878 25.392 92.0731 26.5105 92.0355 28.0017C91.9979 29.493 92.7126 30.4623 94.029 31.0588C94.8189 31.3943 95.6464 31.7671 96.4362 32.0654C98.8811 32.9601 101.439 33.6311 103.771 34.8241C105.614 35.7934 107.043 37.1356 107.908 39.0369C109.977 43.548 108.059 50.5196 101.476 52.0854C100.423 52.3463 100.16 52.7938 100.235 53.7631C100.235 54.3969 100.423 54.6578 101.063 54.8069C104.749 55.6271 107.457 57.6403 108.773 61.2565C108.961 61.7412 109.187 61.7039 109.526 61.5175C110.24 61.1447 110.993 60.7719 111.67 60.3618C112.083 60.1008 112.347 60.1008 112.685 60.4737C113.626 61.4803 114.641 62.375 115.581 63.3816C115.995 63.829 116.183 63.8662 116.597 63.3816C119.117 60.1381 122.314 57.7894 126.376 56.7455C127.129 56.5591 127.166 56.2981 126.64 55.7762C125.135 54.2849 123.631 52.7938 122.126 51.3025C121.788 50.967 121.637 50.706 121.938 50.2213C123.33 47.9472 124.345 45.5239 124.985 42.9515C125.098 42.4296 125.361 42.2804 125.888 42.2804C127.994 42.2804 130.1 42.2804 132.207 42.2804C132.771 42.2804 133.034 42.1686 132.996 41.5348C132.996 37.6203 132.996 33.7057 132.996 29.8285C132.996 29.2692 132.846 29.0828 132.244 29.1201C130.175 29.1201 128.107 29.1201 126.038 29.1201C125.436 29.1201 125.098 29.0083 124.947 28.3372C124.345 25.8021 123.33 23.4534 121.976 21.2538C121.675 20.7692 121.713 20.4709 122.126 20.0608C123.668 18.5695 125.135 17.0782 126.677 15.587C127.054 15.2142 127.091 15.0278 126.677 14.6178C123.819 11.8217 120.998 9.02557 118.177 6.22947C117.838 5.89394 117.65 5.85666 117.274 6.22947C115.77 7.758 114.227 9.24926 112.723 10.7778C112.384 11.1133 112.121 11.2624 111.632 10.9642C109.375 9.62202 106.968 8.61548 104.373 7.98169C103.733 7.83257 103.62 7.53425 103.62 6.97503C103.62 4.96184 103.62 2.98599 103.62 0.9728C103.62 0.227174 103.47 -0.0338308 102.68 0.0034505C98.8811 0.0407318 95.0822 0.0407318 91.2832 0.0034505C90.531 0.0034505 90.2676 0.152576 90.3052 0.935482C90.3805 2.94867 90.3053 4.99916 90.3429 7.01235C90.3429 7.64613 90.1172 7.83257 89.553 7.98169C86.9953 8.61548 84.588 9.62202 82.3312 10.9642C81.8422 11.2624 81.5789 11.1505 81.2404 10.815C79.7358 9.28646 78.1937 7.79521 76.6892 6.26667C76.3507 5.93114 76.1626 5.89386 75.7865 6.26667C72.9655 9.10005 70.1445 11.8962 67.2858 14.6923C66.9097 15.0651 66.8721 15.2515 67.2858 15.6243C68.7528 17.041 70.1445 18.495 71.649 19.8744C72.2132 20.3964 72.326 20.7691 71.8747 21.4402C70.5582 23.5652 69.6178 25.8766 69.016 28.2999C68.8656 28.9337 68.6399 29.1201 67.9629 29.1201C65.8941 29.0828 63.8254 29.1201 61.7567 29.1201C61.1549 29.1201 60.9668 29.2693 60.9668 29.8658C60.9668 33.743 60.9668 37.6203 60.9668 41.4975C60.9668 42.1686 61.2302 42.3177 61.832 42.2804C63.9007 42.2804 65.9694 42.2804 68.0382 42.2804C68.6024 42.2804 68.8657 42.4295 68.9785 42.9887C69.4675 44.9646 70.1821 46.8661 71.16 48.6556C71.5362 49.3639 72.2133 50.0349 72.1757 50.706C72.138 51.4143 71.1225 51.8617 70.6335 52.4955C70.6335 52.4955 70.6334 52.5327 70.5582 52.6446L70.671 52.5327ZM8.72174 77.3249C8.00708 77.3249 7.44296 77.6231 6.91637 78.1077C4.73479 80.2328 2.51556 82.3577 0.296373 84.4455C-0.0797608 84.8183 -0.117374 85.0047 0.296373 85.3775C7.89428 93.132 15.4921 100.924 23.0524 108.678C23.4286 109.088 23.6543 109.126 24.0681 108.678C26.1744 106.628 28.2808 104.615 30.4247 102.564C31.8164 101.222 31.854 99.9918 30.4999 98.6124C28.2431 96.301 25.9487 93.9523 23.6919 91.6409C19.3664 87.2044 15.0033 82.7678 10.6777 78.2941C10.1511 77.7349 9.54923 77.2875 8.72174 77.2875V77.3249Z" fill="#FEFEFE"/>
</svg>
