<svg width="48" height="48" viewBox="0 0 48 48" fill="none" xmlns="http://www.w3.org/2000/svg">
<path fill-rule="evenodd" clip-rule="evenodd" d="M0.00012207 23.28C0.00012207 9.906 10.4821 0 24.0001 0C37.5181 0 48.0001 9.912 48.0001 23.286C48.0001 36.66 37.5181 46.566 24.0001 46.566C21.5701 46.566 19.2421 46.242 17.0521 45.642C16.6261 45.528 16.1701 45.558 15.7681 45.738L11.0041 47.838C10.7164 47.9649 10.4019 48.0192 10.0883 47.9961C9.77465 47.9731 9.4715 47.8733 9.20546 47.7056C8.93942 47.5379 8.71864 47.3075 8.56252 47.0345C8.40641 46.7615 8.31973 46.4543 8.31012 46.14L8.17812 41.868C8.16612 41.34 7.92612 40.848 7.53612 40.5C2.86812 36.324 0.00012207 30.276 0.00012207 23.28ZM16.6381 18.906L9.58815 30.09C8.91014 31.164 10.2301 32.37 11.2381 31.602L18.8101 25.854C19.0593 25.6648 19.3633 25.5618 19.6761 25.5607C19.989 25.5597 20.2937 25.6605 20.5441 25.848L26.1541 30.054C26.5521 30.3528 27.0076 30.5659 27.492 30.6798C27.9764 30.7937 28.4792 30.806 28.9686 30.7158C29.458 30.6255 29.9234 30.4349 30.3353 30.1557C30.7473 29.8766 31.0969 29.5151 31.3621 29.094L38.4181 17.916C39.0901 16.842 37.7701 15.63 36.7621 16.398L29.1901 22.146C28.941 22.3352 28.637 22.4382 28.3241 22.4393C28.0113 22.4403 27.7066 22.3395 27.4561 22.152L21.8461 17.946C21.4482 17.6472 20.9927 17.4341 20.5083 17.3202C20.0238 17.2063 19.5211 17.194 19.0317 17.2843C18.5423 17.3745 18.0769 17.5652 17.665 17.8443C17.253 18.1234 16.9034 18.4849 16.6381 18.906Z" fill="black"/>
</svg>
