<svg width="48" height="48" viewBox="0 0 48 48" fill="none" xmlns="http://www.w3.org/2000/svg">
<path d="M47.8265 34.9148C47.4955 34.0078 46.8582 33.5175 46.135 33.1253C46.0002 33.0518 45.8776 32.9782 45.7673 32.9292C45.5466 32.8189 45.326 32.7086 45.1054 32.5982C42.8501 31.397 41.085 29.9017 39.8716 28.1121C39.5284 27.6096 39.2219 27.0703 38.9768 26.5187C38.8665 26.2245 38.8787 26.0529 38.9523 25.8936C39.0258 25.771 39.1239 25.6729 39.2464 25.5871C39.6387 25.3297 40.0309 25.0723 40.3006 24.9007C40.7786 24.582 41.1708 24.3369 41.416 24.1653C42.3353 23.5157 42.9849 22.8293 43.3894 22.0571C43.9655 20.9784 44.039 19.7159 43.5977 18.576C42.9849 16.9581 41.465 15.9653 39.6142 15.9653C39.2219 15.9653 38.842 16.002 38.4497 16.0878C38.3517 16.1123 38.2414 16.1369 38.1433 16.1614C38.1556 15.0582 38.131 13.8938 38.033 12.7416C37.6898 8.709 36.2679 6.60077 34.7971 4.92154C33.8533 3.86742 32.7501 2.97265 31.5122 2.27399C29.2814 0.99924 26.7441 0.349609 23.9863 0.349609C21.2284 0.349609 18.7034 0.99924 16.4726 2.27399C15.2346 2.97265 14.1315 3.86742 13.1877 4.92154C11.7168 6.60077 10.3072 8.72126 9.95179 12.7416C9.85373 13.8938 9.82922 15.0582 9.84148 16.1614C9.74342 16.1369 9.64536 16.1123 9.53505 16.0878C9.15507 16.002 8.76285 15.9653 8.38287 15.9653C6.53204 15.9653 5.01215 16.9703 4.39929 18.576C3.95803 19.7159 4.03157 20.9784 4.60766 22.0571C5.01215 22.8293 5.66178 23.5157 6.58107 24.1653C6.82621 24.3369 7.20618 24.582 7.69647 24.9007C7.95387 25.0723 8.33384 25.3175 8.71382 25.5626C8.84864 25.6484 8.95896 25.7587 9.04476 25.8936C9.1183 26.0529 9.13056 26.2245 9.00799 26.5432C8.76284 27.0825 8.46867 27.6096 8.12547 28.0999C6.93653 29.8404 5.22052 31.3235 3.03874 32.5124C1.88657 33.1253 0.685365 33.5298 0.170564 34.9148C-0.209408 35.9567 0.035735 37.1334 1.00405 38.1385C1.35951 38.5062 1.77625 38.8249 2.22977 39.07C3.17357 39.5848 4.17866 39.9893 5.23278 40.2712C5.45341 40.3325 5.64952 40.4183 5.83338 40.5409C6.18884 40.8473 6.13981 41.3131 6.60558 41.9995C6.83847 42.355 7.1449 42.6614 7.4881 42.9065C8.48093 43.5929 9.59633 43.6297 10.773 43.6787C11.8394 43.7155 13.0406 43.7645 14.4257 44.218C15.0017 44.4019 15.5901 44.7696 16.2765 45.1986C17.9312 46.216 20.1865 47.601 23.974 47.601C27.7615 47.601 30.029 46.2037 31.696 45.1864C32.3824 44.7696 32.9708 44.4019 33.5223 44.218C34.8951 43.7645 36.1086 43.7155 37.175 43.6787C38.3517 43.6297 39.4671 43.5929 40.4599 42.9065C40.8767 42.6124 41.2198 42.2446 41.465 41.8034C41.8082 41.2273 41.7959 40.8228 42.1146 40.5409C42.2862 40.4183 42.4823 40.3325 42.6785 40.2835C43.7326 40.0016 44.7622 39.5971 45.7182 39.07C46.1963 38.8126 46.6375 38.4694 47.0052 38.0649L47.0175 38.0527C47.9736 37.0721 48.2064 35.9199 47.8265 34.9148ZM44.468 36.7167C42.4211 37.8443 41.0483 37.7217 39.9941 38.4081C39.0871 38.9842 39.6264 40.2345 38.9768 40.688C38.1678 41.2395 35.7899 40.6512 32.7256 41.6686C30.1884 42.502 28.5827 44.9167 24.023 44.9167C19.4634 44.9167 17.8944 42.5143 15.3204 41.6686C12.2561 40.6512 9.87825 41.2518 9.06927 40.688C8.41964 40.2345 8.9467 38.9842 8.05193 38.4081C6.98556 37.7217 5.62501 37.8443 3.57806 36.7167C2.26654 35.9935 3.01423 35.5522 3.44323 35.3438C10.8711 31.7525 12.06 26.2 12.1091 25.7832C12.1703 25.2807 12.2439 24.8885 11.6923 24.3859C11.1653 23.8956 8.81187 22.437 8.14999 21.9835C7.07135 21.2236 6.59333 20.4759 6.94878 19.5443C7.19393 18.907 7.79453 18.6618 8.41964 18.6618C8.61576 18.6618 8.81187 18.6863 9.00799 18.7231C10.1969 18.9805 11.3491 19.5689 12.011 19.7405C12.0968 19.765 12.1703 19.7772 12.2561 19.7772C12.6116 19.7772 12.7342 19.5934 12.7097 19.1889C12.6361 17.8896 12.4523 15.3646 12.6606 12.999C12.9425 9.75086 13.9844 8.13292 15.2346 6.71108C15.8352 6.02468 18.6421 3.05845 24.023 3.05845C29.4039 3.05845 32.2108 6.01242 32.8114 6.69883C34.0617 8.12066 35.1035 9.73861 35.3854 12.9868C35.5938 15.3524 35.4099 17.8774 35.3241 19.1766C35.2996 19.6056 35.4222 19.765 35.7777 19.765C35.8635 19.765 35.937 19.7527 36.0228 19.7282C36.6847 19.5689 37.8369 18.9683 39.0258 18.7109C39.2219 18.6618 39.418 18.6496 39.6142 18.6496C40.2393 18.6496 40.8399 18.8947 41.085 19.5321C41.4405 20.4636 40.9625 21.2113 39.8838 21.9713C39.2342 22.4248 36.8808 23.8834 36.3415 24.3737C35.7899 24.8762 35.8635 25.2684 35.9248 25.771C35.9738 26.1877 37.1627 31.7402 44.5906 35.3316C45.0318 35.54 45.7673 35.9935 44.468 36.7167Z" fill="black"/>
</svg>
