<svg width="54" height="41" viewBox="0 0 54 41" fill="none" xmlns="http://www.w3.org/2000/svg">
<path d="M31.4824 40.9627H28.4779V33.9272C28.2726 33.9272 28.1047 33.8899 27.9367 33.8899C25.4174 33.8899 22.898 33.8899 20.3787 33.8899C19.9308 33.8899 19.8188 34.0205 19.8188 34.4497C19.8375 36.4092 19.8188 38.3873 19.8188 40.3468C19.8188 40.5521 19.8188 40.7387 19.8188 40.9627H13.0632V4.88939H16.6649V2.40736H20.2107V0H28.03V2.35138H31.5758V4.8334H35.2148V24.7269C34.9349 24.7269 34.6923 24.7269 34.431 24.7269C32.3596 24.7269 30.9972 25.9772 30.9786 28.03C30.9226 31.6318 30.9413 35.2148 30.9786 38.8166C30.9786 39.5257 31.2958 40.2349 31.4824 40.9627ZM24.0924 8.19254C22.842 8.19254 21.573 8.19254 20.3227 8.19254C19.5762 8.19254 19.2963 8.47246 19.2963 9.18161C19.2963 9.8721 19.5762 10.152 20.3413 10.152C22.8607 10.152 25.3801 10.152 27.8994 10.152C28.6832 10.152 28.9445 9.8721 28.9445 9.12563C28.9445 8.43514 28.6645 8.17387 27.8807 8.17387C26.6304 8.17387 25.3614 8.17387 24.1111 8.17387L24.0924 8.19254ZM24.1484 14.5189C22.8607 14.5189 21.5543 14.5189 20.2667 14.5189C19.5948 14.5189 19.3149 14.7988 19.2963 15.452C19.2963 16.1611 19.5389 16.4597 20.248 16.4597C22.8234 16.4597 25.3987 16.4597 27.974 16.4597C28.7205 16.4597 28.9631 16.1798 28.9445 15.4333C28.9445 14.7428 28.6832 14.5189 27.9367 14.5002C26.6864 14.5002 25.4174 14.5002 24.167 14.5002L24.1484 14.5189ZM24.0924 29.0938C25.3614 29.0938 26.649 29.0938 27.918 29.0938C28.6645 29.0938 28.9258 28.8512 28.9258 28.1607C28.9258 27.4329 28.6832 27.1529 27.9367 27.1529C25.38 27.1529 22.8233 27.1529 20.2667 27.1529C19.5389 27.1529 19.2776 27.4329 19.2776 28.1234C19.2776 28.8138 19.5576 29.0938 20.304 29.1124C21.5544 29.1124 22.8234 29.1124 24.0737 29.1124L24.0924 29.0938ZM24.1484 20.8452C22.8794 20.8452 21.5917 20.8452 20.3227 20.8452C19.5576 20.8452 19.2776 21.1065 19.2776 21.797C19.2776 22.5062 19.5576 22.7674 20.3227 22.7674C22.8607 22.7674 25.3987 22.7674 27.9367 22.7674C28.6832 22.7674 28.9258 22.5248 28.9258 21.8343C28.9258 21.0878 28.7018 20.8452 27.9367 20.8452C26.6864 20.8452 25.4174 20.8452 24.167 20.8452H24.1484Z" fill="#FCFCFC"/>
<path d="M11.8689 11.8316V40.944H0C0 40.7574 0 40.5708 0 40.3655C0 32.8448 0 25.3241 0 17.8034C0 17.3928 0.11195 17.2062 0.503849 17.0196C4.12424 15.3773 7.74465 13.6978 11.365 12.0369C11.5143 11.9622 11.6636 11.9062 11.8876 11.8129L11.8689 11.8316ZM5.72919 38.0515C6.77425 38.0515 7.80062 38.0515 8.84568 38.0515C9.55483 38.0515 9.72279 37.8462 9.72279 37.081C9.72279 36.3346 9.53617 36.1106 8.84568 36.1106C6.75556 36.1106 4.64678 36.1106 2.55666 36.1106C1.92216 36.1106 1.69821 36.3719 1.67955 37.0624C1.67955 37.7902 1.88483 38.0515 2.55666 38.0515C3.62038 38.0515 4.66547 38.0515 5.72919 38.0515ZM5.67321 19.1097C4.64681 19.1097 3.63904 19.1097 2.61264 19.1097C1.90349 19.1097 1.67955 19.371 1.67955 20.1174C1.67955 20.8079 1.92219 21.0879 2.59402 21.0879C4.64682 21.0879 6.69962 21.0879 8.77108 21.0879C9.49889 21.0879 9.70413 20.8639 9.72279 20.0988C9.72279 19.3336 9.53617 19.1097 8.7897 19.1097C7.74464 19.1097 6.71827 19.1097 5.67321 19.1097ZM5.72919 29.579C6.75559 29.579 7.7633 29.579 8.7897 29.579C9.51751 29.579 9.70413 29.3737 9.72279 28.6459C9.72279 27.8621 9.55483 27.6195 8.84568 27.6008C6.77422 27.6008 4.70277 27.6008 2.61264 27.6008C1.90349 27.6008 1.67957 27.8808 1.69823 28.6272C1.69823 29.3177 1.92217 29.5603 2.63132 29.579C3.67638 29.579 4.70275 29.579 5.74781 29.579H5.72919Z" fill="#FCFCFC"/>
<path d="M41.7839 33.162C41.9705 34.1325 42.1758 34.4311 42.6983 34.4311C43.2209 34.4311 43.4821 34.0951 43.6314 33.162H53.3542C53.3542 33.3113 53.3915 33.442 53.3915 33.5913C53.3915 35.3268 53.3915 37.081 53.3915 38.8166C53.3915 40.1416 52.5331 41 51.1894 41C45.5722 41 39.955 41 34.3378 41C33.0128 41 32.1544 40.1976 32.1357 38.8912C32.1171 37.0064 32.1357 35.1215 32.1357 33.1807H41.8025L41.7839 33.162Z" fill="#FCFCFC"/>
<path d="M32.1545 32.1917C32.1545 30.6427 32.1172 29.1498 32.1545 27.6568C32.1919 26.6491 33.1063 25.9026 34.17 25.884C35.439 25.8653 36.6893 25.884 37.9583 25.884C38.1636 25.884 38.3502 25.884 38.6115 25.884C38.6115 25.3614 38.6115 24.9135 38.6115 24.447C38.6115 23.4579 39.1714 22.8607 40.1418 22.8421C41.84 22.8048 43.5569 22.8048 45.2551 22.8421C46.3561 22.8607 46.8413 23.4393 46.86 24.5403C46.86 24.9695 46.86 25.3801 46.86 25.8653C47.7558 25.8653 48.5769 25.8653 49.4167 25.8653C50.0699 25.8653 50.723 25.8653 51.3575 25.8653C52.4585 25.884 53.3357 26.6678 53.373 27.7688C53.429 29.2244 53.373 30.68 53.373 32.1917C50.1072 32.1917 46.8787 32.1917 43.6502 32.1917C43.4076 31.2212 43.1836 30.9413 42.6798 30.96C42.1572 30.96 41.9146 31.2959 41.8027 32.2103H32.1545V32.1917ZM40.1231 25.6414H45.3298V24.3164H40.1231V25.6414Z" fill="#FCFCFC"/>
<path d="M0.914307 15.5079V7.66998H10.4878C10.4878 8.75237 10.4878 9.83475 10.4878 10.9171C10.4878 11.0478 10.3572 11.2157 10.2266 11.2717C7.20338 12.6713 4.18013 14.0523 1.15692 15.452C1.10093 15.4893 1.0263 15.4893 0.932987 15.5079H0.914307Z" fill="#FCFCFC"/>
</svg>
