<svg width="49" height="46" viewBox="0 0 49 46" fill="none" xmlns="http://www.w3.org/2000/svg">
<path d="M34.7203 0.0348239C35.3813 0.278353 35.6075 0.730601 35.5901 1.4264C35.5553 4.83581 35.5901 8.26264 35.5901 11.6721V12.2287H36.1989C40.0258 12.2287 43.8701 12.2287 47.697 12.2287C48.6015 12.2287 48.8451 12.4896 48.8451 13.3941C48.8451 22.8744 48.8451 32.3372 48.8451 41.8175C48.8451 42.6525 48.7407 42.7568 47.9231 42.7568C46.8968 42.7568 45.8531 42.7568 44.8268 42.7568C44.4268 42.7568 44.131 42.6525 44.0788 42.2002C44.044 41.8349 44.3224 41.6088 44.8268 41.6088C45.7662 41.6088 46.7055 41.6088 47.6622 41.6088V13.3941H35.5901V13.9681C35.5901 18.2473 35.5901 22.5265 35.5901 26.8056C35.5901 26.9622 35.6423 27.171 35.5727 27.2753C35.4335 27.4667 35.2248 27.745 35.0335 27.745C34.8421 27.745 34.616 27.5014 34.4768 27.3101C34.3898 27.1883 34.442 26.9796 34.442 26.7883C34.442 18.4561 34.442 10.1239 34.442 1.79168C34.442 1.60033 34.442 1.42639 34.442 1.20026H14.3161V1.75691C14.3161 10.1065 14.3161 18.4561 14.3161 26.7883C14.3161 26.91 14.3161 27.0492 14.3161 27.171C14.3161 27.658 14.0899 27.9537 13.7246 27.9189C13.2898 27.8841 13.168 27.5711 13.168 27.171C13.168 24.4921 13.168 21.8307 13.168 19.1519C13.168 17.2384 13.168 15.3076 13.168 13.3594H1.18284V41.574C1.79167 41.574 2.36574 41.574 2.95716 41.574C3.44422 41.574 3.75732 41.8175 3.70513 42.1654C3.65295 42.6003 3.35725 42.7221 2.95716 42.7221C2.27876 42.7221 1.58298 42.7569 0.904572 42.7221C0.591462 42.7047 0.295714 42.5307 0 42.4437C0 32.5634 0 22.6656 0 12.7853C0.260924 12.3504 0.626225 12.1939 1.14807 12.2113C4.95757 12.2287 8.76708 12.2113 12.5766 12.2113H13.168V11.6372C13.168 8.22782 13.168 4.81844 13.168 1.39163C13.168 0.69583 13.3767 0.226134 14.0377 0H34.7377L34.7203 0.0348239Z" fill="white"/>
<path d="M21.3607 37.834C21.813 39.1387 22.2827 40.5303 22.8046 42.0784C23.0655 41.1739 23.2916 40.4259 23.5003 39.678C23.5351 39.5562 23.396 39.3822 23.3438 39.2257C23.2568 38.9647 23.0655 38.6343 23.1524 38.4255C23.222 38.2516 23.6047 38.182 23.8656 38.1124C24.057 38.0602 24.2831 38.0602 24.4745 38.1124C24.6832 38.1646 24.9789 38.269 25.0485 38.4255C25.118 38.6169 25.0659 38.9647 24.9267 39.1039C24.631 39.3996 24.6658 39.6606 24.7701 39.9911C24.9789 40.6173 25.1355 41.2609 25.4138 41.9045C25.8487 40.5129 26.2836 39.1213 26.6662 37.8515C27.7621 38.182 28.8232 38.5299 29.9017 38.843C30.6844 39.0691 31.4498 39.2952 31.9717 39.8171C32.2848 39.7649 32.5283 39.6953 32.7718 39.6953C33.3633 39.6953 33.4503 39.8519 33.1719 40.3737C33.1198 40.4781 33.1024 40.6346 33.1198 40.7738C33.1719 41.0347 33.2415 41.2957 33.3459 41.5566C33.4851 41.9045 33.4677 42.1654 33.1198 42.3916C32.998 42.4611 32.9458 42.7047 32.9632 42.8786C32.998 43.5396 33.0676 44.2006 33.1023 44.879C33.1371 45.5574 32.824 45.9053 32.1456 45.9923C32.0065 46.0097 31.8673 45.9923 31.7108 45.9923C26.5967 45.9923 21.4825 45.9923 16.351 45.9923C16.1423 45.9923 15.9336 45.9923 15.7422 45.9401C15.2378 45.8357 14.9246 45.5052 14.9594 45.0182C15.029 43.8179 15.0986 42.6003 15.2725 41.4175C15.4465 40.3042 16.1249 39.5214 17.2034 39.1561C17.7078 38.9821 18.247 38.8603 18.7515 38.7038C19.6039 38.4429 20.4562 38.1472 21.3434 37.8515L21.3607 37.834Z" fill="white"/>
<path d="M24.3702 3.44421C26.7533 3.44421 29.1364 3.44421 31.5195 3.44421C32.2675 3.44421 32.3197 3.51381 32.3197 4.27919C32.3197 5.70558 32.3197 7.13197 32.3197 8.57575C32.3197 9.11499 32.1806 9.27153 31.6587 9.27153C26.7881 9.27153 21.9349 9.27153 17.0643 9.27153C16.5425 9.27153 16.4033 9.11499 16.4033 8.57575C16.4033 7.11457 16.4033 5.65336 16.4033 4.19218C16.4033 3.58336 16.5077 3.46163 17.1165 3.46163C19.5344 3.46163 21.9523 3.46163 24.3702 3.46163V3.44421Z" fill="white"/>
<path d="M28.0579 29.815C28.0579 30.0411 28.0579 30.2673 28.0579 30.476C28.0579 30.7543 28.0579 30.9631 28.3188 31.1718C28.4754 31.2936 28.545 31.6241 28.545 31.8502C28.545 32.1286 28.458 32.4242 28.3015 32.6677C27.7274 33.6245 27.1882 34.5986 26.5271 35.4858C25.1877 37.2601 23.0482 37.3122 21.6566 35.5727C20.926 34.6682 20.3346 33.6419 19.7431 32.633C19.343 31.9372 19.4474 31.5893 20.0214 30.9631C20.091 30.8935 20.1084 30.7369 20.1084 30.6326C20.1084 30.1281 20.091 29.6237 20.1084 29.1018C20.1258 27.4493 20.9782 26.3012 22.5611 25.8142C23.8309 25.4315 25.066 25.5011 26.2662 26.0751C27.5187 26.6839 28.0927 27.7276 28.1101 29.1018C28.1101 29.3453 28.1101 29.5715 28.1101 29.815C28.1101 29.815 28.0753 29.815 28.0579 29.815ZM27.4491 30.0933C27.4491 30.0933 27.3447 30.0237 27.3273 30.0237C27.0838 30.0237 26.8577 30.0064 26.6142 29.989C25.2052 29.8846 23.9179 29.4149 22.8047 28.5278C22.3176 28.1451 21.9175 28.1277 21.4304 28.5278C20.926 28.9453 20.665 29.4845 20.8216 30.1629C20.9086 30.563 20.9608 30.9631 21.0303 31.3805C20.9086 31.4153 20.8216 31.4327 20.752 31.4327C20.1084 31.4327 19.9171 31.6763 20.2302 32.1981C20.9086 33.3288 21.587 34.4769 22.422 35.4684C23.2569 36.4773 24.805 36.5121 25.64 35.5205C26.5097 34.4768 27.1882 33.2592 27.9014 32.0763C28.1449 31.6588 28.0057 31.5197 27.5361 31.5023C27.3969 31.5023 27.2577 31.4675 27.0664 31.4501C27.2055 30.9631 27.3273 30.5282 27.4665 30.0759L27.4491 30.0933Z" fill="white"/>
<path d="M37.5209 38.1994C37.921 36.3903 37.6948 35.4336 36.7555 34.9291C36.912 35.2422 37.086 35.5553 37.2773 35.9206C36.3728 35.2248 35.4857 34.6334 34.7029 33.9376C34.2332 33.5201 33.9027 32.9461 33.4852 32.4068C31.8675 34.0419 31.6414 36.025 32.3372 38.2863C31.8849 38.2863 31.5022 38.3037 31.1369 38.2863C31.0325 38.2863 30.876 38.1645 30.8238 38.0602C30.6846 37.7297 30.5455 37.3818 30.4933 37.0339C30.2672 35.4683 30.4759 33.955 31.3109 32.5808C32.5285 30.6151 34.0419 30.3716 36.0945 30.8413C36.7033 30.9804 37.3121 31.5545 37.7296 32.0763C38.982 33.6593 39.2777 35.4858 38.8081 37.434C38.5993 38.3211 38.5124 38.3733 37.5383 38.2341L37.5209 38.1994Z" fill="white"/>
<path d="M10.3847 39.9214C10.6978 40.8086 11.0109 41.7305 11.324 42.6351C11.3588 42.6351 11.3936 42.6351 11.4284 42.6351C11.5676 42.148 11.7241 41.6609 11.8285 41.1739C11.8459 41.0695 11.7415 40.9304 11.6719 40.8086C11.4284 40.4259 11.5502 40.165 12.0024 40.1302C12.1764 40.1302 12.3504 40.1302 12.5243 40.1302C12.907 40.1824 13.0809 40.4781 12.82 40.7564C12.5939 41.0173 12.646 41.2261 12.7156 41.487C12.8374 41.8697 12.9418 42.235 13.0983 42.7568C13.4288 41.7131 13.7072 40.8086 14.0029 39.8693C14.1942 39.9736 14.3508 40.0606 14.5247 40.1476C13.8637 41.6783 14.055 43.3135 13.8115 44.9486C13.6724 44.9486 13.5332 44.966 13.3766 44.966C11.2023 44.966 9.02788 44.966 6.83612 44.966C5.98377 44.966 5.80985 44.7399 5.89683 43.9049C5.94901 43.47 5.98376 43.0525 6.01855 42.6176C6.12292 41.6261 6.62742 41.0173 7.58414 40.739C8.19297 40.5651 8.81918 40.4433 9.428 40.2694C9.74111 40.1824 10.0542 40.0258 10.3847 39.904V39.9214Z" fill="white"/>
<path d="M38.7384 41.8001C38.4775 41.3652 38.2687 41.0348 38.06 40.7043C37.8339 40.3738 37.5903 40.0781 37.2946 39.678C37.486 39.7302 37.5904 39.7475 37.6947 39.7997C38.4253 40.1128 39.1559 40.4086 39.8691 40.7565C41.2433 41.3827 42.0087 42.4611 42.1478 43.9745C42.1826 44.2876 42.2 44.6007 42.2348 44.966H34.3375C34.2853 44.6007 34.2331 44.218 34.1809 43.7658C34.407 43.9223 34.5636 44.0441 34.755 44.2006C35.4682 43.5918 36.1988 42.983 36.8772 42.3394C37.2946 41.9393 37.7295 41.7132 38.3209 41.8175C38.4253 41.8349 38.5297 41.8175 38.7558 41.8175L38.7384 41.8001Z" fill="white"/>
<path d="M14.9249 34.4942C14.9249 34.8943 14.7857 35.277 15.1336 35.6423C15.2554 35.7641 15.1684 36.2163 15.0466 36.4425C14.6639 37.1383 14.2639 37.8341 13.7768 38.4603C12.8897 39.591 11.498 39.591 10.5935 38.4603C10.1064 37.8515 9.70635 37.1556 9.28887 36.4772C9.08013 36.1119 9.02796 35.7293 9.41065 35.3988C9.48023 35.3292 9.51503 35.19 9.53242 35.0682C9.53242 34.8421 9.53242 34.616 9.53242 34.4072C9.53242 32.6329 10.7501 31.5719 12.5244 31.7806C13.7768 31.9372 14.577 32.5112 14.8031 33.4853C14.8901 33.8158 14.8727 34.1811 14.9075 34.529L14.9249 34.4942ZM14.4726 34.7377C13.2201 34.7203 12.1243 34.3725 11.1676 33.6071C11.0458 33.5201 10.75 33.5549 10.5935 33.6419C10.176 33.868 9.9499 34.2333 10.0195 34.7377C10.0543 35.0335 10.1065 35.3292 10.1413 35.6075C9.48025 35.7466 9.41065 35.8858 9.74116 36.4251C10.1064 37.0165 10.4717 37.6253 10.8892 38.1646C11.6372 39.1213 12.7679 39.1213 13.5159 38.1646C13.9682 37.5731 14.3334 36.9121 14.7161 36.2859C14.8031 36.1468 14.8031 35.9728 14.8553 35.7814C14.5944 35.7467 14.403 35.7119 14.1943 35.6945C14.2986 35.364 14.3682 35.0857 14.4726 34.7552V34.7377Z" fill="white"/>
<path d="M3.75743 21.1175C3.75743 20.5261 3.75743 19.9694 3.75743 19.4128C3.75743 19.3258 3.94878 19.1519 4.03575 19.1519C6.01878 19.1519 8.00177 19.1519 9.9848 19.1519C10.0718 19.1519 10.2458 19.291 10.2458 19.378C10.2632 19.952 10.2458 20.5087 10.2458 21.1175H3.72266H3.75743Z" fill="white"/>
<path d="M3.79199 25.2053V23.2571H10.2456V25.2053H3.79199Z" fill="white"/>
<path d="M3.79199 29.2931V27.3448H10.2456V29.2931H3.79199Z" fill="white"/>
<path d="M45.0004 21.1175H38.5469V19.1693H45.0004V21.1175Z" fill="white"/>
<path d="M45.018 23.2571V25.1879H38.5645V23.2571H45.018Z" fill="white"/>
<path d="M45.0004 27.3448V29.2931H38.5469V27.3448H45.0004Z" fill="white"/>
<path d="M22.6306 13.0462H26.1096V16.56H22.6306V13.0462Z" fill="white"/>
<path d="M31.9373 13.0636V16.5774H28.4409V13.0636H31.9373Z" fill="white"/>
<path d="M16.8209 16.5774V13.0288C17.5167 13.0288 18.1951 13.0288 18.8735 13.0288C19.2562 13.0288 19.6389 13.0115 20.0215 13.0288C20.1433 13.0288 20.3346 13.168 20.3346 13.255C20.352 14.3509 20.3346 15.4467 20.3346 16.5774H16.8035H16.8209Z" fill="white"/>
<path d="M16.8208 19.6041H20.3172V23.1005H16.8208V19.6041Z" fill="white"/>
<path d="M26.1096 23.1179H22.6306V19.6215H26.1096V23.1179Z" fill="white"/>
<path d="M31.92 23.1179H28.4236V19.6215H31.92V23.1179Z" fill="white"/>
</svg>
