<svg width="52" height="47" viewBox="0 0 52 47" fill="none" xmlns="http://www.w3.org/2000/svg">
<path d="M16.5867 30.6092C15.0574 31.6679 13.5869 32.6875 12.1165 33.707C11.9792 33.805 11.842 33.903 11.6851 33.9815C11.293 34.1579 10.9205 34.0991 10.6656 33.7266C10.4107 33.3737 10.4696 33.0012 10.7833 32.6875C10.9401 32.5306 11.1361 32.4326 11.3126 32.2953C12.7439 31.315 14.1751 30.3151 15.6652 29.2956C15.175 28.5898 14.6849 27.9035 14.1751 27.1585C13.2341 27.8055 12.3125 28.4329 11.391 29.0799C8.88145 30.8053 6.39149 32.5306 3.8819 34.2756C3.80347 34.3148 3.74462 34.3736 3.6662 34.4128C3.25447 34.6481 2.80351 34.5696 2.54863 34.2167C2.29375 33.8442 2.35256 33.3933 2.72508 33.0992C3.1172 32.8051 3.50936 32.5502 3.92109 32.2561C6.88162 30.1975 9.86178 28.1584 12.8223 26.0998C12.94 26.0213 13.0576 25.9233 13.1948 25.8057C12.7047 25.0998 12.2341 24.4333 11.7244 23.6882C11.0186 24.1588 10.3323 24.6293 9.64606 25.0998C8.94024 25.59 8.25407 26.0802 7.54825 26.5507C6.99927 26.9232 6.50909 26.9036 6.2346 26.4919C5.94051 26.0606 6.09739 25.6096 6.62675 25.2371C7.84234 24.394 9.07752 23.551 10.2931 22.7079C10.45 22.6099 10.5872 22.4922 10.7636 22.355C10.3323 21.7472 9.92055 21.159 9.52843 20.5708C8.72458 19.3944 8.92066 18.2181 10.097 17.3946C12.8615 15.4732 15.6456 13.5518 18.4297 11.65C18.6061 11.5324 18.9002 11.4736 19.1355 11.4932C21.0373 11.6304 22.9391 11.8069 24.8409 11.9245C25.1546 11.9441 25.5467 11.8461 25.8016 11.6696C29.8013 8.92475 33.7813 6.16026 37.7614 3.41539C38.8201 2.68997 39.9965 2.23902 41.2513 1.94493C44.0746 1.31753 46.8978 0.709746 49.7211 0.0823483C49.7603 0.0823483 49.8192 0.0431276 49.8584 0.0431276C50.3485 -0.0352972 50.8583 -0.0548986 51.172 0.41565C51.4857 0.866592 51.3092 1.31753 51.074 1.72926C50.4858 2.70957 49.878 3.65069 49.2702 4.631C48.3291 6.14068 47.388 7.66996 46.4469 9.19924C45.7215 10.3756 44.8 11.3755 43.6628 12.1794C39.7416 14.885 35.8204 17.5907 31.9187 20.316C31.6638 20.4924 31.4678 20.8061 31.3698 21.1002C30.8012 22.9432 30.2718 24.8254 29.7228 26.6683C29.664 26.8644 29.5072 27.0801 29.3307 27.2173C26.527 29.1583 23.7233 31.0993 20.9196 33.0403C19.8609 33.7658 18.6453 33.5501 17.8807 32.4914C17.4494 31.8836 17.018 31.2758 16.567 30.6092H16.5867ZM29.4091 22.0609C25.5467 24.7273 21.8215 27.2958 18.0571 29.9034C18.4885 30.5112 18.861 31.0797 19.2727 31.6091C19.4884 31.9032 19.7825 31.864 20.0766 31.6679C22.7234 29.8249 25.3703 28.0016 28.0171 26.1586C28.1544 26.0606 28.2915 25.9233 28.3308 25.7861C28.6837 24.5901 29.017 23.3941 29.4091 22.0217V22.0609ZM11.9792 21.257C15.724 18.669 19.4296 16.1006 23.1351 13.5518C21.8215 13.3361 20.5668 13.2381 19.312 13.1597C19.1747 13.1597 18.9982 13.2577 18.861 13.3557C17.8807 14.0224 16.9004 14.7086 15.9397 15.3752C14.3124 16.4927 12.7047 17.6103 11.0773 18.7278C10.7636 18.9435 10.548 19.1788 10.8029 19.5513C11.1754 20.1199 11.5871 20.6689 11.9988 21.257H11.9792ZM40.4278 12.4931C41.5061 11.748 42.506 11.0422 43.4667 10.3756C42.0355 8.35616 40.6827 6.39554 39.271 4.3957C38.3103 5.06231 37.2712 5.74855 36.2125 6.49358C37.6241 8.49341 38.9966 10.4736 40.4278 12.5127V12.4931ZM15.4299 26.1782C15.5476 26.0998 15.6064 26.0802 15.6652 26.041C19.6256 23.2961 23.6057 20.5512 27.5662 17.826C27.6642 17.7671 27.7622 17.6887 27.8406 17.6103C28.1347 17.2966 28.1543 16.9633 27.919 16.6104C27.6838 16.2575 27.3309 16.179 26.9387 16.3359C26.7623 16.3947 26.6251 16.5319 26.4682 16.63C23.2724 18.8259 20.0962 21.0218 16.9004 23.2373C16.1161 23.7862 15.3319 24.3352 14.5084 24.9038C14.8221 25.3547 15.0966 25.7469 15.4103 26.1978L15.4299 26.1782Z" fill="white"/>
<path d="M48.9567 7.61113C49.2508 7.14058 49.5252 6.70926 49.7801 6.27793C50.6232 6.47399 51.2702 7.29746 51.3486 8.21895C51.3486 8.3758 51.3486 8.55224 51.3486 8.7287C51.3486 18.9827 51.3486 29.2172 51.3486 39.4712C51.3486 41.2161 50.4075 42.1769 48.6626 42.1769C42.271 42.1769 35.8989 42.1769 29.5073 42.1769C29.3308 42.1769 29.1544 42.1769 28.9191 42.1769V45.3923C29.4877 45.3923 30.0563 45.3923 30.6445 45.3923C30.9778 45.3923 31.3111 45.3923 31.6444 45.3923C32.1541 45.3923 32.4875 45.7256 32.4875 46.1961C32.4875 46.6667 32.1541 46.9804 31.6444 47C31.0954 47 30.5464 47 29.9974 47C26.6644 47 23.351 47 20.0179 47C19.9003 47 19.7826 47 19.665 47C19.1749 46.9608 18.8611 46.6471 18.8611 46.2157C18.8611 45.7648 19.1945 45.4119 19.6846 45.3923C20.4297 45.3923 21.1943 45.3923 21.9393 45.3923H22.4295V42.1769C22.253 42.1769 22.057 42.1769 21.8609 42.1769C15.5085 42.1769 9.15608 42.1769 2.80367 42.1769C0.90187 42.1769 0 41.275 0 39.3928C0 29.1976 0 19.0023 0 8.80711C0 7.00334 0.941104 6.06226 2.76448 6.06226C10.9599 6.06226 19.1553 6.06226 27.331 6.06226C27.5075 6.06226 27.7036 6.06226 27.88 6.10148C28.2525 6.19951 28.4878 6.45439 28.4878 6.86612C28.4878 7.29745 28.2525 7.55232 27.8604 7.65035C27.7035 7.68957 27.5271 7.66995 27.3702 7.66995C19.1944 7.66995 11.0186 7.66995 2.84286 7.66995C1.84295 7.66995 1.62729 7.88562 1.62729 8.86593C1.62729 18.1789 1.62729 27.4918 1.62729 36.8048C1.62729 36.9616 1.62729 37.1381 1.62729 37.3341H49.7605C49.7605 37.1577 49.7801 37.0008 49.7801 36.8244C49.7801 27.4918 49.7801 18.1593 49.7801 8.84633C49.7801 8.06208 49.6821 7.92485 48.9763 7.63076L48.9567 7.61113ZM24.1156 42.1965V45.3531H27.233V42.1965H24.1156Z" fill="white"/>
<path d="M40.173 28.9231C41.9179 28.9231 43.6433 28.9231 45.3882 28.9231C45.5255 28.9231 45.6628 28.9231 45.7804 28.9231C46.2313 28.9623 46.5254 29.2956 46.545 29.7073C46.545 30.1386 46.2313 30.4916 45.7608 30.5112C45.153 30.5308 44.5256 30.5112 43.8982 30.5112C40.9964 30.5112 38.0948 30.5112 35.1734 30.5112C35.0558 30.5112 34.9382 30.5112 34.8205 30.5112C34.0559 30.5112 33.6833 30.2367 33.6833 29.6877C33.6833 29.1583 34.0559 28.9034 34.7813 28.9034C36.1145 28.9034 37.4478 28.9034 38.781 28.9034C39.2319 28.9034 39.6829 28.9034 40.1338 28.9034L40.173 28.9231Z" fill="white"/>
<path d="M40.1144 33.7462C38.291 33.7462 36.4676 33.7462 34.6442 33.7462C34.1737 33.7462 33.8208 33.5697 33.7227 33.0992C33.6051 32.5894 33.9973 32.1581 34.605 32.1385C35.4873 32.1385 36.3696 32.1385 37.2519 32.1385C40.0164 32.1385 42.7612 32.1385 45.5257 32.1385C45.9374 32.1385 46.2903 32.2169 46.4864 32.6286C46.7413 33.1972 46.3296 33.7462 45.6433 33.7462C43.8004 33.7462 41.977 33.7462 40.134 33.7462H40.1144Z" fill="white"/>
<path d="M40.173 25.7076C41.9768 25.7076 43.7806 25.7076 45.5843 25.7076C46.0353 25.7076 46.3686 25.8645 46.5058 26.3154C46.6627 26.8644 46.251 27.3153 45.6039 27.3153C43.9374 27.3153 42.2708 27.3153 40.5847 27.3153C38.7221 27.3153 36.84 27.3153 34.9774 27.3153C34.8009 27.3153 34.644 27.3153 34.4676 27.3153C33.9578 27.2565 33.6833 26.9428 33.6833 26.5115C33.6833 26.0605 34.0363 25.7468 34.546 25.7468C36.4086 25.7468 38.2908 25.7468 40.1534 25.7468L40.173 25.7076Z" fill="white"/>
<path d="M40.0753 24.1195C38.2715 24.1195 36.4677 24.1195 34.6639 24.1195C34.2914 24.1195 33.9581 24.0215 33.8013 23.649C33.5464 23.1 33.9385 22.5314 34.5855 22.5118C35.1345 22.5118 35.6835 22.5118 36.2325 22.5118C39.2714 22.5118 42.3103 22.5118 45.3689 22.5118C45.5258 22.5118 45.663 22.5118 45.8199 22.5118C46.2708 22.5707 46.5649 22.8844 46.5649 23.3157C46.5649 23.7274 46.2512 24.0803 45.8199 24.0999C45.2121 24.1195 44.5847 24.0999 43.9573 24.0999C42.6632 24.0999 41.3888 24.0999 40.0948 24.0999L40.0753 24.1195Z" fill="white"/>
<path d="M4.82281 27.7075C4.82281 28.1388 4.48952 28.5113 4.03857 28.5113C3.58763 28.5113 3.21509 28.1584 3.21509 27.6879C3.21509 27.2565 3.58761 26.9036 4.01895 26.9036C4.45029 26.9036 4.8032 27.2565 4.82281 27.6879V27.7075Z" fill="white"/>
<path d="M8.84245 34.1383C9.27378 34.1383 9.62664 34.4912 9.64625 34.9226C9.64625 35.3735 9.27376 35.746 8.82282 35.7264C8.39149 35.7264 8.03855 35.3539 8.05815 34.9029C8.05815 34.4716 8.43068 34.1187 8.86201 34.1187L8.84245 34.1383Z" fill="white"/>
</svg>
