<svg width="51" height="49" viewBox="0 0 51 49" fill="none" xmlns="http://www.w3.org/2000/svg">
<path d="M25.52 0C25.8777 0.187395 26.2525 0.374789 26.6103 0.545149C33.2884 3.69679 39.9664 6.84844 46.6445 10.0171C47.1215 10.2386 47.5985 10.46 48.0585 10.6986C48.1266 10.7326 48.1948 10.8008 48.1948 10.8519C48.1948 11.397 48.1948 11.9592 48.1948 12.5214H2.6748C2.6748 12.2659 2.6748 12.0274 2.6748 11.7888C2.6748 11.5163 2.6748 11.2437 2.6748 10.9882C2.6748 10.8178 2.72594 10.7497 2.86223 10.6986C5.40058 9.50604 7.95593 8.29649 10.4943 7.08694C15.4177 4.75302 20.3581 2.43613 25.2815 0.102215C25.3326 0.0851794 25.3666 0.0511077 25.4007 0.0340718C25.4348 0.0340718 25.4518 0.0340718 25.4859 0.0340718L25.52 0Z" fill="white"/>
<path d="M46.0651 40.1877V43.0498H48.5353V45.9288H50.9203V48.7738H0V45.9458H2.36796V43.0668H4.85519V40.2047H46.0821L46.0651 40.1877Z" fill="white"/>
<path d="M12.9133 17.0359C13.1177 24.4636 13.3392 31.9083 13.5436 39.353H8.19434C8.38173 31.9253 8.5691 24.4976 8.7565 17.0359H12.9133Z" fill="white"/>
<path d="M28.1943 17.0189H32.3511C32.5555 24.4636 32.777 31.9082 32.9985 39.3529H27.6492C27.8366 31.9082 28.024 24.4636 28.2114 17.0189H28.1943Z" fill="white"/>
<path d="M23.2711 39.3529H17.9219C18.1093 31.9082 18.2966 24.4636 18.484 17.0189H22.6408C22.8452 24.4636 23.0667 31.8912 23.2711 39.3529Z" fill="white"/>
<path d="M42.7089 39.3529H37.3596C37.547 31.9082 37.7344 24.4636 37.9218 17.0189H42.0785C42.283 24.4465 42.5044 31.8912 42.7089 39.3529Z" fill="white"/>
<path d="M7.08691 16.1841V13.3391H43.8334V16.1841H7.08691Z" fill="white"/>
</svg>
