<svg width="47" height="44" viewBox="0 0 47 44" fill="none" xmlns="http://www.w3.org/2000/svg">
<path d="M38.8483 31.5515C40.7654 31.0984 42.5954 30.5407 44.4776 30.2967C45.1573 30.2096 46.4121 30.7499 46.5515 31.2553C46.7432 31.9175 46.3249 33.2246 45.7672 33.5383C39.9289 36.8671 34.0905 40.2481 28.0604 43.1934C26.2305 44.0997 23.7557 44.0648 21.6121 43.9254C15.0243 43.5071 8.45395 42.7926 1.86618 42.2698C0.59394 42.1652 -0.0334798 41.7992 0.00137618 40.405C0.0710881 38.087 -0.0683208 35.7517 0.0711029 33.4338C0.105959 32.7889 0.646215 31.9175 1.20391 31.5864C3.5044 30.2445 5.82232 28.8851 8.27966 27.8742C13.3686 25.7655 18.3182 25.5738 22.6403 29.7913C23.0586 30.2096 23.8603 30.3839 24.5051 30.3839C27.8165 30.4362 31.1277 30.3839 34.4391 30.4187C36.269 30.4187 37.2798 31.2553 37.3321 32.7018C37.3844 34.218 36.3213 35.2114 34.4565 35.2288C30.7443 35.2637 27.0322 35.2288 23.32 35.2637C22.7972 35.2637 22.2569 35.6819 21.7341 35.9085C22.2743 36.1874 22.8146 36.7102 23.3549 36.7102C26.8928 36.7799 30.4306 36.7451 33.9685 36.7451C37.489 36.7451 38.8832 35.316 38.8483 31.5341V31.5515Z" fill="white"/>
<path d="M15.2159 13.8273C17.1155 14.2804 18.8583 14.8206 20.6534 15.1169C25.3067 15.8838 28.1649 19.8922 26.9798 24.0923C26.7358 24.9463 26.4046 25.26 25.4461 25.3123C17.9521 25.6434 14.693 20.2756 15.1985 13.8447L15.2159 13.8273Z" fill="white"/>
<path d="M46.7429 13.8098C47.1088 16.3195 46.464 18.8465 45.1569 21.2167C43.571 24.0923 38.8829 26.114 35.833 25.2077C35.467 25.1032 35.101 24.5281 34.979 24.0924C33.759 19.9271 36.5301 15.936 41.0962 15.1169C42.9959 14.7858 44.8606 14.2455 46.7429 13.7924V13.8098Z" fill="white"/>
<path d="M29.9598 4.74727C29.7855 4.95641 29.7158 5.2004 29.7158 5.51411C29.7158 5.77553 29.7855 6.00209 29.9075 6.1938C30.0295 6.3855 30.2735 6.52493 30.6395 6.62949V4.34644C30.3607 4.39872 30.1341 4.53814 29.9598 4.74727Z" fill="white"/>
<path d="M31.3718 8.14569V10.5333C31.9992 10.3765 32.313 9.95821 32.313 9.24366C32.313 8.99967 32.2433 8.79054 32.1213 8.59884C31.9818 8.40713 31.7378 8.25026 31.3893 8.14569H31.3718Z" fill="white"/>
<path d="M32.1211 0.0765974C28.3915 -0.446242 25.0453 1.74967 24.0519 5.37469C23.3199 8.09345 24.1391 10.3765 25.8644 12.4679C26.8056 13.6007 27.8163 14.6115 27.7292 16.3892C27.6421 17.888 29.6986 19.5436 31.0579 19.5611C32.3999 19.5611 34.5261 17.888 34.4215 16.424C34.2995 14.6289 35.4498 13.7227 36.1992 12.4853C37.1578 10.8994 37.8723 9.80138 38.3603 7.32661C38.2906 7.29176 38.3254 7.30918 38.3603 7.32661C38.3603 3.70159 35.7112 0.616845 32.1211 0.111434V0.0765974ZM33.0448 10.9516C32.6439 11.4048 32.0688 11.7011 31.3542 11.7882V12.4504C31.3542 12.4504 31.3194 12.5724 31.2322 12.5724H30.7443C30.7443 12.5724 30.6222 12.5376 30.6222 12.4504V11.8056C30.1517 11.8056 29.716 11.7011 29.2978 11.5442C28.8969 11.3874 28.5309 11.1782 28.1998 10.9168C28.1301 10.8645 28.1126 10.7948 28.1823 10.7251L28.8446 9.88853C28.8446 9.88853 28.9666 9.81881 29.0189 9.88853C29.1932 10.0454 29.4371 10.1848 29.6986 10.3068C29.9774 10.4462 30.2737 10.5159 30.6049 10.5508V7.98888C29.8903 7.86689 29.3326 7.60548 28.9317 7.18721C28.5309 6.76894 28.3217 6.22867 28.3217 5.60126C28.3217 5.2527 28.374 4.93899 28.496 4.64272C28.6006 4.34644 28.7575 4.10245 28.9666 3.87588C29.1758 3.64932 29.4197 3.47504 29.6986 3.33562C29.9774 3.1962 30.2911 3.10907 30.6222 3.07421V2.42936C30.6222 2.42936 30.6571 2.30738 30.7443 2.30738H31.2322C31.2322 2.30738 31.3542 2.34222 31.3542 2.42936V3.07421C31.7202 3.10907 32.0688 3.17876 32.3825 3.30076C32.6962 3.42275 32.9925 3.56217 33.2539 3.73645C33.3062 3.78874 33.3236 3.84103 33.2713 3.91074L32.6962 4.76472C32.6962 4.76472 32.5916 4.83443 32.5219 4.78214C32.3476 4.66015 32.1559 4.573 31.9468 4.50329C31.7551 4.43358 31.5459 4.3813 31.3368 4.34644V6.78635C32.0862 6.90834 32.6613 7.18719 33.0448 7.60547C33.4282 8.02374 33.6199 8.54657 33.6199 9.20884C33.6199 9.92338 33.4107 10.4985 33.0099 10.9691L33.0448 10.9516Z" fill="white"/>
</svg>
