<svg width="18" height="18" viewBox="0 0 18 18" fill="none" xmlns="http://www.w3.org/2000/svg">
<path d="M16.8776 17.4423C14.9314 17.4423 13.0041 16.9807 11.0957 16.0577C9.18736 15.1346 7.48362 13.924 5.98452 12.4259C4.48539 10.9279 3.27238 9.22691 2.34547 7.32308C1.41854 5.41925 0.955078 3.4949 0.955078 1.55003C0.955078 1.25003 1.05515 1.00003 1.25529 0.800031C1.45543 0.600031 1.7056 0.500031 2.00581 0.500031H5.26955C5.52871 0.500031 5.75483 0.579839 5.94792 0.739455C6.14099 0.899072 6.26062 1.10516 6.30682 1.35773L6.88029 4.30001C6.92005 4.54616 6.91588 4.76987 6.86778 4.97116C6.81966 5.17244 6.71414 5.34808 6.55121 5.49808L4.24961 7.74616C5.03991 9.08719 5.98224 10.2987 7.0766 11.3808C8.17094 12.4628 9.40963 13.4064 10.7927 14.2116L13.0288 11.9385C13.1917 11.7757 13.3845 11.66 13.6071 11.5914C13.8297 11.5228 14.0577 11.5084 14.2912 11.5481L17.07 12.1135C17.3228 12.1699 17.529 12.292 17.6887 12.4798C17.8484 12.6676 17.9283 12.891 17.9283 13.15V16.3923C17.9283 16.6923 17.8282 16.9423 17.6281 17.1423C17.428 17.3423 17.1778 17.4423 16.8776 17.4423ZM3.52991 6.32696L5.31578 4.61926C5.34785 4.59361 5.3687 4.55835 5.37832 4.51348C5.38795 4.4686 5.38634 4.42693 5.37349 4.38848L4.93859 2.15386C4.92575 2.10257 4.90329 2.06411 4.87122 2.03848C4.83915 2.01283 4.79745 2.00001 4.74613 2.00001H2.6062C2.56771 2.00001 2.53563 2.01283 2.50996 2.03848C2.48431 2.06411 2.47148 2.09616 2.47148 2.13463C2.52278 2.81796 2.63472 3.5122 2.80729 4.21733C2.97984 4.92246 3.22072 5.62567 3.52991 6.32696ZM16.2926 15.9115C16.3311 15.9115 16.3632 15.8987 16.3888 15.8731C16.4145 15.8474 16.4273 15.8154 16.4273 15.7769V13.6731C16.4273 13.6218 16.4145 13.5801 16.3888 13.5481C16.3632 13.516 16.3247 13.4936 16.2733 13.4808L14.1719 13.0538C14.1334 13.041 14.0997 13.0394 14.0709 13.049C14.042 13.0586 14.0115 13.0795 13.9794 13.1115L12.1974 14.9115C12.8607 15.2205 13.5525 15.4567 14.2729 15.6202C14.9933 15.7837 15.6665 15.8808 16.2926 15.9115Z" fill="#FCFCFC"/>
</svg>
