<svg width="50" height="50" viewBox="0 0 50 50" fill="none" xmlns="http://www.w3.org/2000/svg">
<mask id="mask0_7_2863" style="mask-type:alpha" maskUnits="userSpaceOnUse" x="0" y="0" width="50" height="50">
<rect width="50" height="50" fill="#D9D9D9"/>
</mask>
<g mask="url(#mask0_7_2863)">
<path d="M24.6499 42.3949C24.2065 42.3949 23.7771 42.2981 23.3618 42.1045C22.9465 41.9109 22.5773 41.6311 22.2541 41.2652L5.73558 21.4615C5.34832 20.9834 5.11263 20.4378 5.0285 19.8248C4.94437 19.2119 5.04652 18.6276 5.33496 18.0721L9.52167 9.71068C9.81015 9.18984 10.1954 8.77453 10.6775 8.46474C11.1596 8.15491 11.6998 8 12.2981 8H37.0016C37.5999 8 38.1401 8.15491 38.6222 8.46474C39.1043 8.77453 39.4896 9.18984 39.778 9.71068L43.9647 18.0721C44.2532 18.6276 44.3553 19.2119 44.2712 19.8248C44.1871 20.4378 43.9514 20.9834 43.5641 21.4615L27.0456 41.2652C26.7224 41.6311 26.3532 41.9109 25.9379 42.1045C25.5226 42.2981 25.0932 42.3949 24.6499 42.3949ZM18.8605 18.4167H30.4392L26.7933 11.1249H22.5064L18.8605 18.4167ZM23.0874 37.4111V21.5416H9.9022L23.0874 37.4111ZM26.2123 37.4111L39.3975 21.5416H26.2123V37.4111ZM33.9127 18.4167H40.5954L36.9696 11.1249H30.2668L33.9127 18.4167ZM8.70428 18.4167H15.387L19.0329 11.1249H12.3301L8.70428 18.4167Z" fill="url(#paint0_linear_7_2863)"/>
</g>
<defs>
<linearGradient id="paint0_linear_7_2863" x1="24.6499" y1="8" x2="25" y2="102.5" gradientUnits="userSpaceOnUse">
<stop stop-color="#80C2F2"/>
<stop offset="1" stop-color="#00FF19" stop-opacity="0"/>
</linearGradient>
</defs>
</svg>
