<svg width="289" height="36" viewBox="0 0 289 36" fill="none" xmlns="http://www.w3.org/2000/svg">
<g clip-path="url(#clip0_125_135)">
<path d="M19.5049 3.14994V13.4231C19.6907 13.3024 19.8657 13.1707 20.0187 13.006L30.4929 2.50238C31.127 1.86579 31.4113 1.02067 31.3457 0.186523H22.4459C20.8169 0.186523 19.5049 1.5036 19.5049 3.13896" fill="#F72323"/>
<path d="M33.2917 5.32318L22.8285 15.8268C22.6427 16.0134 22.4896 16.222 22.3584 16.4415C22.3912 16.4415 22.4131 16.4415 22.4459 16.4415H32.756C34.385 16.4415 35.697 15.1244 35.697 13.489V4.47806C34.8442 4.37928 33.9477 4.66464 33.2917 5.32318Z" fill="#F72323"/>
<path d="M32.756 19.5696H22.4678C22.5771 19.7232 22.6864 19.8659 22.8286 20.0086L33.2917 30.5123C33.9477 31.1708 34.8443 31.4562 35.6971 31.3574V22.522C35.6971 20.8867 34.3851 19.5696 32.756 19.5696Z" fill="#F72323"/>
<path d="M30.3073 33.5195L19.8441 23.0158C19.7348 22.9061 19.6254 22.8183 19.5161 22.7305V32.8829C19.5161 34.5183 20.8281 35.8354 22.4572 35.8354H31.171C31.2366 35.0012 30.9523 34.1561 30.3182 33.5195" fill="#F72323"/>
<path d="M5.39015 2.50239L15.8643 13.017C15.9736 13.1268 16.0829 13.2146 16.1923 13.3024V3.14995C16.1923 1.51458 14.8803 0.19751 13.2512 0.19751H4.54829C4.48269 1.03166 4.76695 1.87678 5.40109 2.51336" fill="#F72323"/>
<path d="M2.94106 16.4524H13.2293C13.12 16.2987 13.0106 16.156 12.8685 16.0134L2.40533 5.5097C1.74933 4.85117 0.852798 4.5658 0 4.66458V13.4999C0 15.1353 1.312 16.4524 2.94106 16.4524Z" fill="#F72323"/>
<path d="M2.40533 30.6987L12.8685 20.195C13.0544 20.0084 13.2074 19.7999 13.3386 19.5804C13.3058 19.5804 13.284 19.5804 13.2512 19.5804H2.94106C1.312 19.5694 0 20.8975 0 22.5219V31.5438C0.852798 31.6426 1.74933 31.3572 2.40533 30.6987Z" fill="#F72323"/>
<path d="M16.1921 32.872V22.5879C16.0062 22.7086 15.8313 22.8403 15.6782 23.005L5.21505 33.5196C4.58092 34.1562 4.29665 35.0013 4.36225 35.8355H13.251C14.8801 35.8355 16.1921 34.5184 16.1921 32.883" fill="#F72323"/>
<path d="M39.9502 4.24756V19.9427C39.9502 22.7415 40.9123 24.1463 43.8971 24.1463H58.1213V18.6585H47.4723C46.6523 18.6585 46.4774 18.4171 46.4774 17.6268V14.828H56.4048V9.30732H46.4774V6.50854C46.4774 5.75122 46.6523 5.47683 47.4723 5.47683H58.1213V0H43.8971C40.9123 0 39.9502 1.41585 39.9502 4.24756Z" fill="#17177F"/>
<path d="M77.67 13.8732L72.5532 3.58902C71.2849 0.998781 70.1807 0 66.7804 0H62.2759V24.1463H68.8031V10.5585L73.8543 20.6671C75.2318 23.4659 76.5657 24.1463 79.5942 24.1463H84.1972V0H77.67V13.8732Z" fill="#17177F"/>
<path d="M88.3413 5.4878H96.4866V24.1463H103.014V5.4878H110.033V0H88.3413V5.4878Z" fill="#17177F"/>
<path d="M134.556 8.86829C134.556 5.07073 132.905 0.0329268 127.548 0H114.176V24.1463H120.703V17.6268H123.623L124.727 19.4159C126.793 22.7634 128.16 24.5195 131.801 24.5195C132.763 24.5195 133.9 24.3768 135.234 24.1354L130.15 17.1329C133.452 15.7829 134.545 11.9195 134.545 8.85732M125.131 12.0951H120.703V5.4878H125.131C126.782 5.4878 127.744 6.51951 127.744 8.90122C127.744 11.2829 126.684 12.1061 125.131 12.1061" fill="#17177F"/>
<path d="M139.378 4.24756V19.9427C139.378 22.7415 140.34 24.1463 143.325 24.1463H157.549V18.6585H146.9C146.08 18.6585 145.905 18.3841 145.905 17.6268V14.828H155.833V9.30732H145.905V6.50854C145.905 5.75122 146.08 5.47683 146.9 5.47683H157.549V0H143.325C140.34 0 139.378 1.41585 139.378 4.24756Z" fill="#17177F"/>
<path d="M172.047 13.972C170.811 17.0122 169.674 18.0439 168.165 18.2195V0H161.704V24.1463H168.165C173.73 24.1463 175.173 22.9061 177.371 17.5939L184.653 0H177.677L172.047 13.972Z" fill="#17177F"/>
<path d="M195.324 0H188.796V24.1463H195.324V0Z" fill="#17177F"/>
<path d="M206.716 6.55244L199.467 24.1463H206.858L208.476 20.1402H215.966V24.1463H222.427V0H215.966C210.401 0 208.925 1.24024 206.727 6.55244M215.966 14.6634H210.707L212.489 10.1744C213.724 7.13415 214.512 5.7622 215.955 5.52073V14.6634H215.966Z" fill="#17177F"/>
<path d="M242.271 11.4585C244.097 10.4598 244.917 8.73659 244.917 6.28902C244.917 2.99634 242.916 0 238.937 0H226.56V24.1463H240.095C244.042 24.1463 246.076 20.7329 246.076 17.4183C246.076 14.5207 244.873 12.4134 242.26 11.4476M233.087 5.47683H236.356C237.526 5.47683 238.521 5.75122 238.521 7.26585C238.521 8.78049 237.526 9.09878 236.356 9.09878H233.087V5.47683ZM237.515 18.6585H233.087V14.1695H237.756C238.816 14.2683 239.68 14.8939 239.68 16.3098C239.68 17.8573 238.652 18.6585 237.515 18.6585Z" fill="#17177F"/>
<path d="M256.747 17.6268V0H250.22V19.9427C250.22 22.7415 251.182 24.1463 254.167 24.1463H266.674V18.6585H257.742C256.922 18.6585 256.747 18.3841 256.747 17.6268Z" fill="#17177F"/>
<path d="M278.351 5.4878H289V0H274.776C271.791 0 270.829 1.41585 270.829 4.24756V19.9427C270.829 22.7415 271.791 24.1463 274.776 24.1463H289V18.6585H278.351C277.531 18.6585 277.356 18.3841 277.356 17.6268V14.828H287.284V9.30732H277.356V6.50854C277.356 5.75122 277.531 5.47683 278.351 5.47683" fill="#17177F"/>
<path d="M49.1233 30.0403L47.1663 35.9342H46.2807L44.6844 31.2256L43.0772 35.9342H42.1807L40.2236 30.0403H41.0874L42.6727 34.8256L44.3236 30.0403H45.089L46.7071 34.8586L48.3252 30.0403H49.1233Z" fill="#17177F"/>
<path d="M56.536 30.0403V35.9342H55.6942V33.311H52.3267V35.9342H51.4849V30.0403H52.3267V32.5756H55.6942V30.0403H56.536Z" fill="#17177F"/>
<path d="M63.8944 35.1988V35.9342H59.6304V30.0403H63.7741V30.7756H60.4722V32.5866H63.4133V33.3H60.4722V35.1988H63.8944Z" fill="#17177F"/>
<path d="M70.5087 35.9342L69.2405 34.1232C69.1202 34.1232 68.9999 34.1452 68.8688 34.1452H67.4146V35.9342H66.5728V30.0403H68.8578C70.3885 30.0403 71.3069 30.8196 71.3069 32.0927C71.3069 33.0037 70.8367 33.6622 70.0167 33.9476L71.4053 35.9232H70.4869L70.5087 35.9342ZM70.4869 32.0927C70.4869 31.2476 69.9293 30.7756 68.8469 30.7756H67.4256V33.4208H68.8469C69.9183 33.4208 70.4869 32.9378 70.4869 32.0927Z" fill="#17177F"/>
<path d="M78.2824 35.1988V35.9342H74.0293V30.0403H78.1621V30.7756H74.8602V32.5866H77.8013V33.3H74.8602V35.1988H78.2824Z" fill="#17177F"/>
<path d="M88.8331 35.1988V35.9342H84.5801V30.0403H88.7129V30.7756H85.411V32.5866H88.3521V33.3H85.411V35.1988H88.8331Z" fill="#17177F"/>
<path d="M96.5849 30.0403V35.9342H95.8961L92.3756 31.5439V35.9342H91.5337V30.0403H92.2225L95.743 34.4305V30.0403H96.5849Z" fill="#17177F"/>
<path d="M100.849 30.7756H98.8369V30.0403H103.691V30.7756H101.68V35.9342H100.849V30.7756Z" fill="#17177F"/>
<path d="M109.869 35.9342L108.6 34.1232C108.48 34.1232 108.36 34.1452 108.229 34.1452H106.774V35.9342H105.933V30.0403H108.218C109.748 30.0403 110.667 30.8196 110.667 32.0927C110.667 33.0037 110.197 33.6622 109.377 33.9476L110.765 35.9232H109.847L109.869 35.9342ZM109.847 32.0927C109.847 31.2476 109.289 30.7756 108.207 30.7756H106.785V33.4208H108.207C109.278 33.4208 109.847 32.9378 109.847 32.0927Z" fill="#17177F"/>
<path d="M117.631 35.1988V35.9342H113.378V30.0403H117.511V30.7756H114.209V32.5866H117.161V33.3H114.209V35.1988H117.631Z" fill="#17177F"/>
<path d="M125.066 32.0927C125.066 33.3769 124.147 34.1452 122.617 34.1452H121.163V35.9232H120.321V30.0293H122.606C124.137 30.0293 125.055 30.8086 125.055 32.0817M124.213 32.0817C124.213 31.2366 123.655 30.7647 122.573 30.7647H121.152V33.4098H122.573C123.645 33.4098 124.213 32.9269 124.213 32.0927" fill="#17177F"/>
<path d="M131.56 35.9342L130.292 34.1232C130.172 34.1232 130.052 34.1452 129.921 34.1452H128.466V35.9342H127.625V30.0403H129.91C131.44 30.0403 132.359 30.8196 132.359 32.0927C132.359 33.0037 131.888 33.6622 131.068 33.9476L132.457 35.9232H131.539L131.56 35.9342ZM131.539 32.0927C131.539 31.2476 130.981 30.7756 129.899 30.7756H128.477V33.4208H129.899C130.97 33.4208 131.539 32.9378 131.539 32.0927Z" fill="#17177F"/>
<path d="M139.334 35.1988V35.9342H135.081V30.0403H139.214V30.7756H135.912V32.5866H138.853V33.3H135.912V35.1988H139.334Z" fill="#17177F"/>
<path d="M147.075 30.0403V35.9342H146.386L142.866 31.5439V35.9342H142.035V30.0403H142.723L146.244 34.4305V30.0403H147.075Z" fill="#17177F"/>
<path d="M154.433 35.1988V35.9342H150.18V30.0403H154.323V30.7756H151.022V32.5866H153.963V33.3H151.022V35.1988H154.433Z" fill="#17177F"/>
<path d="M157.09 33.3878V30.0403H157.932V33.3549C157.932 34.661 158.522 35.2427 159.583 35.2427C160.643 35.2427 161.245 34.65 161.245 33.3549V30.0403H162.054V33.3878C162.054 35.1 161.124 36 159.572 36C158.019 36 157.09 35.1 157.09 33.3878Z" fill="#17177F"/>
<path d="M169.029 35.9342L167.761 34.1232C167.64 34.1232 167.52 34.1452 167.389 34.1452H165.935V35.9342H165.093V30.0403H167.378C168.908 30.0403 169.827 30.8196 169.827 32.0927C169.827 33.0037 169.357 33.6622 168.537 33.9476L169.925 35.9232H169.007L169.029 35.9342ZM169.007 32.0927C169.007 31.2476 168.449 30.7756 167.367 30.7756H165.946V33.4208H167.367C168.438 33.4208 169.007 32.9378 169.007 32.0927Z" fill="#17177F"/>
<path d="M172.003 35.2536L172.309 34.5951C172.746 34.9902 173.49 35.2756 174.244 35.2756C175.261 35.2756 175.698 34.8805 175.698 34.3646C175.698 32.9268 172.145 33.8378 172.145 31.6426C172.145 30.7317 172.845 29.9634 174.386 29.9634C175.075 29.9634 175.786 30.15 176.278 30.4902L176.005 31.1597C175.491 30.8305 174.911 30.6768 174.397 30.6768C173.402 30.6768 172.976 31.0939 172.976 31.6097C172.976 33.0475 176.529 32.1475 176.529 34.3097C176.529 35.2097 175.808 35.989 174.255 35.989C173.359 35.989 172.473 35.6817 172.014 35.2536" fill="#17177F"/>
<path d="M184.139 30.0403V35.9342H183.297V33.311H179.929V35.9342H179.087V30.0403H179.929V32.5756H183.297V30.0403H184.139Z" fill="#17177F"/>
<path d="M188.075 30.0403H187.233V35.9342H188.075V30.0403Z" fill="#17177F"/>
<path d="M195.914 32.0927C195.914 33.3769 194.996 34.1452 193.465 34.1452H192.011V35.9232H191.169V30.0293H193.454C194.985 30.0293 195.903 30.8086 195.903 32.0817M195.061 32.0817C195.061 31.2366 194.504 30.7647 193.421 30.7647H192V33.4098H193.421C194.493 33.4098 195.061 32.9269 195.061 32.0927" fill="#17177F"/>
<path d="M202.999 30.0403H202.157V35.9342H202.999V30.0403Z" fill="#17177F"/>
<path d="M205.568 35.2536L205.874 34.5951C206.311 34.9902 207.055 35.2756 207.809 35.2756C208.826 35.2756 209.263 34.8805 209.263 34.3646C209.263 32.9268 205.71 33.8378 205.71 31.6426C205.71 30.7317 206.41 29.9634 207.951 29.9634C208.64 29.9634 209.351 30.15 209.843 30.4902L209.569 31.1597C209.056 30.8305 208.476 30.6768 207.962 30.6768C206.967 30.6768 206.541 31.0939 206.541 31.6097C206.541 33.0475 210.094 32.1475 210.094 34.3097C210.094 35.2097 209.373 35.989 207.82 35.989C206.924 35.989 206.038 35.6817 205.579 35.2536" fill="#17177F"/>
<path d="M221.684 35.9342L221.673 31.6427L219.552 35.2208H219.169L217.048 31.6647V35.9342H216.239V30.0403H216.928L219.377 34.1781L221.793 30.0403H222.482V35.9342H221.684Z" fill="#17177F"/>
<path d="M225.106 32.9817C225.106 31.2585 226.429 29.9744 228.233 29.9744C230.037 29.9744 231.338 31.2585 231.338 32.9817C231.338 34.7049 230.015 35.989 228.233 35.989C226.451 35.989 225.106 34.7049 225.106 32.9817ZM230.507 32.9817C230.507 31.6756 229.534 30.7207 228.233 30.7207C226.932 30.7207 225.948 31.6756 225.948 32.9817C225.948 34.2878 226.921 35.2427 228.233 35.2427C229.545 35.2427 230.507 34.2878 230.507 32.9817Z" fill="#17177F"/>
<path d="M237.898 35.9342L236.63 34.1232C236.509 34.1232 236.389 34.1452 236.258 34.1452H234.804V35.9342H233.962V30.0403H236.247C237.778 30.0403 238.696 30.8196 238.696 32.0927C238.696 33.0037 238.226 33.6622 237.406 33.9476L238.794 35.9232H237.876L237.898 35.9342ZM237.876 32.0927C237.876 31.2476 237.318 30.7756 236.236 30.7756H234.815V33.4208H236.236C237.308 33.4208 237.876 32.9378 237.876 32.0927Z" fill="#17177F"/>
<path d="M245.66 35.1988V35.9342H241.407V30.0403H245.54V30.7756H242.238V32.5866H245.179V33.3H242.238V35.1988H245.66Z" fill="#17177F"/>
<path d="M257.053 30.0403L254.483 35.9342H253.653L251.072 30.0403H251.969L254.09 34.8805L256.211 30.0403H257.053Z" fill="#17177F"/>
<path d="M259.983 30.0403H259.141V35.9342H259.983V30.0403Z" fill="#17177F"/>
<path d="M266.816 34.4635H263.7L263.055 35.9342H262.191L264.848 30.0403H265.679L268.347 35.9342H267.472L266.827 34.4635H266.816ZM266.521 33.7939L265.253 30.9074L263.984 33.7939H266.51H266.521Z" fill="#17177F"/>
<path d="M275.596 34.3427C275.596 35.3525 274.831 35.9342 273.355 35.9342H270.556V30.0403H273.191C274.535 30.0403 275.29 30.611 275.29 31.5659C275.29 32.2025 274.962 32.6525 274.503 32.883C275.17 33.0695 275.596 33.5635 275.596 34.3427ZM271.387 30.7208V32.6086H273.103C273.956 32.6086 274.448 32.2903 274.448 31.6647C274.448 31.0391 273.967 30.7208 273.103 30.7208H271.387ZM274.743 34.2769C274.743 33.5964 274.24 33.2891 273.311 33.2891H271.387V35.2537H273.311C274.24 35.2537 274.743 34.9574 274.743 34.2769Z" fill="#17177F"/>
<path d="M278.242 30.0403H279.084V35.1988H282.254V35.9342H278.242V30.0403Z" fill="#17177F"/>
<path d="M288.814 35.1988V35.9342H284.561V30.0403H288.705V30.7756H285.403V32.5866H288.344V33.3H285.403V35.1988H288.814Z" fill="#17177F"/>
</g>
<defs>
<clipPath id="clip0_125_135">
<rect width="289" height="36" fill="white"/>
</clipPath>
</defs>
</svg>
