<svg width="28" height="29" viewBox="0 0 28 29" fill="none" xmlns="http://www.w3.org/2000/svg">
<path fill-rule="evenodd" clip-rule="evenodd" d="M27.44 14.8122C27.44 13.7852 27.3509 12.7976 27.1855 11.8496H14V17.4522H21.5345C21.21 19.2626 20.2236 20.7966 18.7409 21.8236V25.4577H23.2655C25.9127 22.9362 27.44 19.2231 27.44 14.8122Z" fill="#4285F4"/>
<path fill-rule="evenodd" clip-rule="evenodd" d="M13.9999 28.9676C17.7799 28.9676 20.949 27.6707 23.2654 25.4586L18.7408 21.8245C17.4872 22.6935 15.8836 23.2071 13.9999 23.2071C10.3536 23.2071 7.26719 20.6593 6.16629 17.2358H1.48901V20.9884C3.79265 25.722 8.5272 28.9676 13.9999 28.9676Z" fill="#34A853"/>
<path fill-rule="evenodd" clip-rule="evenodd" d="M6.16636 17.2359C5.88636 16.3669 5.72727 15.4386 5.72727 14.484C5.72727 13.5294 5.88636 12.6011 6.16636 11.7321V7.97949H1.48909C0.540909 9.93479 0 12.1468 0 14.484C0 16.8211 0.540909 19.0332 1.48909 20.9885L6.16636 17.2359Z" fill="#FBBC05"/>
<path fill-rule="evenodd" clip-rule="evenodd" d="M13.9999 5.76079C16.0554 5.76079 17.9008 6.49156 19.3517 7.92676L23.3672 3.77258C20.9426 1.43544 17.7736 0.000244141 13.9999 0.000244141C8.5272 0.000244141 3.79265 3.2459 1.48901 7.97943L6.16629 11.732C7.26719 8.3086 10.3536 5.76079 13.9999 5.76079Z" fill="#EA4335"/>
</svg>
