<svg width="70" height="40" viewBox="0 0 70 40" fill="none" xmlns="http://www.w3.org/2000/svg">
<path d="M28.675 24.342C28.8247 25.4989 29.5516 26.163 30.4924 26.6772C32.1389 27.5769 33.9136 27.7912 35.7524 27.684C37.014 27.5984 38.2328 27.3413 39.366 26.7414C40.3282 26.2273 41.1193 25.5417 41.269 24.342C42.4877 24.4492 43.6423 24.7705 44.7328 25.2847C48.6457 27.1485 50.955 31.2617 50.5487 35.5892C50.3349 37.8815 49.0306 39.2954 46.5717 39.681C45.0963 39.8952 43.5996 39.9809 42.1242 39.9809C37.3561 40.0238 32.6093 39.9809 27.8411 39.9809C26.2588 39.9809 24.698 39.9809 23.1371 39.6382C20.6568 39.0597 19.5236 37.7101 19.3739 35.1821C19.0532 29.7407 23.073 24.9633 28.4612 24.3635C28.5253 24.3635 28.5681 24.3635 28.675 24.3635V24.342Z" fill="#19355B"/>
<path d="M24.3557 6.28233C24.4626 6.4323 24.5481 6.60368 24.6764 6.7108C25.0399 7.01072 25.0613 7.39634 24.7406 7.73911C24.6337 7.84622 24.5695 8.01761 24.5695 8.14615C24.6978 10.1813 24.8475 12.238 24.9972 14.2732C25.0399 14.9587 24.6978 16.2869 24.2915 16.7582C24.0136 15.9656 23.6501 15.2372 23.6928 14.4017C23.757 13.3305 23.8425 12.2808 23.9067 11.2097C23.9708 10.2028 24.0564 9.19588 24.1205 8.18899C24.1205 8.03903 24.035 7.8248 23.9281 7.69626C23.6287 7.35349 23.6715 6.96787 24.0136 6.68937C24.1419 6.58226 24.2702 6.38945 24.2702 6.23949C24.2702 6.13237 24.0564 6.00383 23.9281 5.91814C23.7998 5.83245 23.6073 5.81102 23.479 5.70391C23.308 5.55395 23.0728 5.38256 23.0728 5.21118C23.0728 5.03979 23.308 4.86841 23.479 4.69702C23.5432 4.63275 23.6715 4.5899 23.7784 4.54706C27.0498 3.13313 30.2999 1.71921 33.5713 0.30528C34.5121 -0.10176 35.4743 -0.10176 36.4151 0.30528C39.6866 1.71921 42.9366 3.13313 46.208 4.54706C46.5074 4.6756 46.935 4.76129 46.935 5.18975C46.935 5.61822 46.5287 5.70391 46.208 5.83245C45.2245 6.26091 44.2409 6.68937 43.236 7.11784C43.0008 7.22495 42.8939 7.35349 42.9152 7.61057C42.9152 7.73911 42.9152 7.86765 42.9152 7.97476C42.9152 9.23873 42.9152 10.4813 43.3214 11.7238C43.9201 13.6733 43.5567 15.6228 42.9366 17.5081C42.1027 20.0574 40.8412 22.3497 38.7457 24.1064C36.351 26.1202 33.6141 26.1202 31.2193 24.1064C30.8131 23.7636 30.4068 23.3994 30.0647 22.9924C27.841 20.3788 26.558 17.3581 26.3656 13.909C26.3014 12.9021 26.5152 11.8952 26.8146 10.9312C26.9429 10.5241 27.007 10.0957 27.0284 9.68861C27.0712 8.98165 27.0284 8.27469 27.0284 7.56772C27.0284 7.43918 26.9643 7.22495 26.8788 7.18211C26.0877 6.81791 25.2751 6.47514 24.4626 6.13237L24.3557 6.23949V6.28233ZM27.4775 15.1087C27.6699 15.8585 27.8196 16.6726 28.0975 17.4438C28.8245 19.6075 29.9364 21.557 31.7325 23.0352C32.716 23.8707 33.8493 24.3849 35.1749 24.3206C36.5648 24.2563 37.698 23.5708 38.6816 22.6282C40.4777 20.8715 41.5467 18.7078 42.1882 16.2869C42.4234 15.4086 42.4021 14.5731 42.1669 13.7162C41.7178 12.2165 40.5632 11.681 39.1306 12.3022C38.2112 12.6878 37.3131 13.0949 36.3937 13.4805C35.4529 13.8875 34.4908 13.8875 33.55 13.4805C32.5878 13.0735 31.6256 12.645 30.6634 12.238C29.466 11.7452 28.3541 12.1951 27.9051 13.3948C27.7127 13.909 27.6485 14.466 27.4988 15.0872L27.4775 15.1087Z" fill="#19355B"/>
<path d="M17.5992 35.525C17.4709 35.525 17.364 35.525 17.2571 35.525C13.5794 35.525 9.9017 35.525 6.24538 35.525C5.24043 35.525 4.21411 35.4393 3.25193 35.2251C1.41308 34.8181 0.621955 33.7898 0.450899 31.776C0.108789 27.7056 3.48715 23.7209 7.54972 23.3995C7.59248 23.3995 7.63524 23.3995 7.678 23.3995C7.84906 24.4707 8.61878 25.0277 9.51682 25.4133C11.5909 26.2488 13.665 26.2488 15.7176 25.3919C16.5943 25.0277 17.3212 24.4493 17.4923 23.3995C19.1815 23.5709 20.6354 24.2136 21.9397 25.3062C18.8393 28.0055 17.4067 31.4118 17.5992 35.5679V35.525Z" fill="#19355B"/>
<path d="M62.2446 23.3566C64.0193 23.528 65.5803 24.1921 66.8632 25.4132C68.8303 27.2556 69.7069 29.5479 69.4289 32.2472C69.2579 33.8753 68.2743 34.9036 66.521 35.2464C65.794 35.3964 65.0457 35.4821 64.2973 35.4821C60.3844 35.5035 56.4715 35.4821 52.58 35.5035C52.4945 35.5035 52.4303 35.5035 52.3234 35.5035C52.5159 31.3902 51.0833 27.984 47.9829 25.2632C49.2658 24.1706 50.7198 23.528 52.3876 23.3566C53.0504 25.3703 54.7396 25.7131 56.4929 25.9488C57.8827 26.1202 59.2512 25.9488 60.5341 25.3489C61.3894 24.9419 62.095 24.4063 62.266 23.3566H62.2446Z" fill="#19355B"/>
<path d="M4.34244 9.3458C4.42797 9.45291 4.51349 9.58145 4.59902 9.66714C4.83422 9.9028 4.8556 10.117 4.66316 10.3955C4.55625 10.5669 4.49213 10.7811 4.49213 10.974C4.57766 12.495 4.70594 14.016 4.81285 15.5371C4.85561 16.1584 4.62041 16.9939 4.2783 17.4652C4.00034 16.8225 3.74375 16.2012 3.8079 15.5157C3.91481 13.9946 4.04308 12.4736 4.12861 10.974C4.12861 10.7811 4.04309 10.5669 3.93618 10.3955C3.76513 10.0956 3.78648 9.88137 4.04307 9.66714C4.3638 9.38864 4.34242 9.2601 3.97892 9.04587C3.72234 8.91733 3.35887 8.72452 3.33749 8.51029C3.27335 8.12468 3.72236 8.08183 4.00033 7.95329C6.45925 6.88213 8.91818 5.8324 11.3557 4.73982C12.1896 4.37563 13.0021 4.37563 13.836 4.73982C16.3163 5.8324 18.7966 6.88213 21.2769 7.97471C21.5121 8.08183 21.7046 8.31748 21.897 8.51029C21.6832 8.68168 21.4908 8.91733 21.2556 9.02445C20.55 9.36722 19.8443 9.66714 19.1387 9.94564C18.8821 10.0528 18.7539 10.1813 18.7752 10.4812C18.7966 11.0596 18.7752 11.6381 18.7752 12.2165C18.7752 12.345 18.7752 12.495 18.818 12.6235C19.5664 14.5088 19.3739 16.3726 18.7324 18.215C18.1337 19.9931 17.2357 21.5998 15.8673 22.9066C14.9692 23.7421 13.9429 24.342 12.66 24.3848C11.3984 24.4063 10.3507 23.8707 9.45269 23.0566C7.59246 21.3427 6.56614 19.179 6.05297 16.7368C5.77501 15.3657 5.86055 14.0375 6.33095 12.6878C6.48062 12.2165 6.3523 11.6809 6.43783 11.1668C6.56612 10.3527 6.30956 9.83853 5.45428 9.64572C5.11217 9.56003 4.79146 9.36722 4.47073 9.23868L4.36378 9.32437L4.34244 9.3458ZM12.5745 23.3351C13.7505 23.3351 14.6913 22.7781 15.5038 21.9854C16.9364 20.5715 17.813 18.8577 18.2193 16.9082C18.3476 16.3297 18.3048 15.6656 18.1552 15.0872C17.8772 13.9303 16.9364 13.5233 15.8459 13.9946C15.1617 14.2945 14.4774 14.573 13.7932 14.873C12.9807 15.2372 12.1682 15.2372 11.3557 14.873C10.6715 14.5516 9.96587 14.2517 9.26026 13.9732C8.25531 13.5447 7.37868 13.9518 7.01519 14.9801C6.7586 15.7513 6.77998 16.5225 7.01519 17.2938C7.5925 19.3076 8.51188 21.0857 10.1797 22.4353C10.8639 22.9923 11.6551 23.3351 12.5745 23.3351Z" fill="#19355B"/>
<path d="M49.116 9.32438C49.116 9.32438 49.2229 9.56003 49.2871 9.6243C49.6292 9.92423 49.6506 10.117 49.3726 10.4598C49.2871 10.5455 49.2443 10.6955 49.2443 10.824C49.3512 12.3879 49.4582 13.9732 49.5864 15.5371C49.6292 16.2226 49.3726 16.8225 49.0946 17.5509C48.7311 16.7368 48.5174 16.0298 48.5815 15.2372C48.7098 13.8232 48.7953 12.3879 48.8808 10.974C48.8808 10.7812 48.7953 10.5669 48.7098 10.3955C48.5387 10.0956 48.5601 9.88138 48.8167 9.66715C49.1588 9.38865 49.116 9.26011 48.7311 9.04588C48.4745 8.91734 48.1111 8.72453 48.0897 8.5103C48.0255 8.12469 48.4746 8.06042 48.7525 7.9533C51.2328 6.86072 53.7345 5.78956 56.2362 4.69698C56.9632 4.37564 57.7116 4.35421 58.4386 4.69698C61.0044 5.81099 63.5488 6.90357 66.1146 8.01757C66.1574 8.03899 66.2216 8.03899 66.2643 8.08184C66.3926 8.21038 66.6278 8.38176 66.6278 8.5103C66.6278 8.66026 66.414 8.85307 66.2429 8.93876C65.5159 9.28153 64.789 9.60288 64.0407 9.88138C63.6344 10.0313 63.4634 10.2456 63.5275 10.674C63.5489 10.8668 63.5275 11.0811 63.5275 11.2953C63.5275 12.0023 63.5703 12.6878 63.7841 13.3734C64.2972 15.0229 64.0193 16.6511 63.4847 18.2578C62.8005 20.2716 61.7742 22.0926 60.0422 23.4208C58.2889 24.7705 56.3431 24.749 54.5898 23.378C52.7296 21.9212 51.6819 19.9288 51.0404 17.7222C50.5486 16.0298 50.4845 14.3588 51.1045 12.6664C51.2756 12.1737 51.1046 11.5738 51.1901 11.0168C51.297 10.3098 51.019 9.92423 50.3348 9.73142C49.9499 9.6243 49.565 9.41007 49.2015 9.23869L49.0946 9.30296L49.116 9.32438ZM57.3267 23.3351C57.3267 23.3351 57.4977 23.3351 57.5833 23.3351C58.8448 23.2494 59.807 22.5639 60.6195 21.6641C61.8382 20.3145 62.5866 18.7077 63.0142 16.951C63.1639 16.2869 63.1212 15.6656 62.9288 15.0229C62.5653 13.9304 61.71 13.5447 60.6409 13.9946C59.9353 14.2945 59.2511 14.5945 58.5455 14.8944C57.7544 15.2372 56.9632 15.2586 56.1935 14.8944C55.4665 14.573 54.7608 14.2517 54.0339 13.9518C53.0503 13.5447 52.1309 13.9518 51.8315 14.9587C51.6819 15.4728 51.575 16.0298 51.6605 16.544C52.0668 18.7291 53.0075 20.6572 54.654 22.1783C55.4023 22.8638 56.279 23.3137 57.3267 23.3137V23.3351Z" fill="#19355B"/>
</svg>
