<svg width="49" height="47" viewBox="0 0 49 47" fill="none" xmlns="http://www.w3.org/2000/svg">
<path d="M44.9092 26.0332C45.2826 25.737 45.6561 25.4096 46.0295 25.129C46.434 24.8328 46.8385 24.5366 47.2586 24.2716C47.5698 24.069 47.8499 24.1313 48.1455 24.3652C49.1412 25.1446 49.2035 26.7502 48.2544 27.7167C46.8386 29.1509 45.4071 30.5851 43.9757 32.0192C42.3265 33.6716 40.6773 35.3084 39.0281 36.9764C38.4991 37.522 37.8612 37.7559 37.1143 37.7559C32.509 37.7559 27.9036 37.7559 23.2982 37.7559C21.6334 37.7559 20.2176 38.3326 19.0507 39.5174C18.6928 39.8759 18.3505 40.2345 18.0238 40.5618C15.3944 37.9274 12.796 35.324 10.1355 32.6584C10.4311 32.3622 10.7734 32.0504 11.1001 31.723C12.2048 30.6318 13.2939 29.525 14.3986 28.4182C16.2812 26.5476 19.0196 26.2358 21.2911 27.5764C21.5556 27.7323 21.9135 27.8258 22.2247 27.8258C26.5189 27.8414 30.8131 27.8258 35.1073 27.8258C36.8965 27.8258 38.0323 29.6653 37.1766 31.2086C36.7254 32.0348 35.9786 32.4089 35.045 32.4089C32.4312 32.4089 29.8017 32.4089 27.1879 32.4089C27.0789 32.4089 26.9389 32.3778 26.8611 32.4089C26.7367 32.4869 26.5655 32.6272 26.5655 32.7363C26.5655 32.8454 26.7367 32.9701 26.8611 33.0637C26.9078 33.0948 27.0167 33.0637 27.0945 33.0637C29.7395 33.0637 32.3845 33.0637 35.0139 33.0637C36.8965 33.0637 38.2346 31.536 38.1101 29.9148C38.1101 29.79 38.1724 29.6341 38.2657 29.5562C40.4751 27.5453 42.6843 25.5343 44.9092 23.539C45.2826 23.196 45.7183 23.196 46.0451 23.5078C46.3874 23.8352 46.3874 24.2716 46.0295 24.6613C45.6405 25.0978 45.236 25.5499 44.847 25.9864C44.847 26.002 44.8782 26.0176 44.8938 26.0332H44.9092Z" fill="#19355B"/>
<path d="M26.2231 12.3306C26.2231 12.7359 26.083 12.9542 25.8341 13.1257C25.4296 13.3751 25.025 13.6245 24.6205 13.8739C24.2316 14.1078 24.0448 14.4507 24.076 14.9028C24.076 15.199 24.076 15.5107 24.076 15.8069C24.076 16.2278 24.2316 16.5552 24.605 16.7734C24.9784 17.0072 25.3673 17.2411 25.7408 17.4749C26.2542 17.7867 26.3475 18.0829 26.1297 18.6441C26.083 18.7532 26.0364 18.8779 25.9897 18.987C25.803 19.3767 25.4918 19.5482 25.0717 19.4547C24.605 19.3456 24.1382 19.2364 23.687 19.1273C23.2358 19.0182 22.8624 19.1117 22.5512 19.4703C22.3801 19.6885 22.1778 19.8756 21.96 20.0626C21.6021 20.3588 21.5088 20.7174 21.6177 21.1694C21.7422 21.6215 21.8355 22.0736 21.9444 22.5257C22.0533 22.9933 21.9133 23.2895 21.4777 23.5077C21.3532 23.5701 21.2132 23.6325 21.0731 23.6792C20.5908 23.8663 20.2641 23.7416 19.9996 23.3051C19.7506 22.9154 19.5173 22.5101 19.2683 22.1048C19.0505 21.7306 18.7082 21.5747 18.2881 21.5747C17.9769 21.5747 17.6658 21.5747 17.3546 21.5747C16.9657 21.5747 16.6389 21.715 16.4367 22.058C16.2188 22.4321 15.9855 22.7907 15.7521 23.1648C15.3164 23.8819 14.3207 23.9286 13.8539 23.2116C13.7294 23.0245 13.7139 22.7439 13.745 22.5257C13.8072 22.0736 13.9473 21.6215 14.0562 21.1694C14.1806 20.7174 14.0562 20.3432 13.6983 20.0315C13.496 19.86 13.2938 19.6729 13.1382 19.4703C12.8426 19.0961 12.4536 19.0026 12.0024 19.1117C11.5356 19.2208 11.0844 19.3456 10.6177 19.4391C10.182 19.5326 9.87083 19.3767 9.68413 18.9558C9.62189 18.7999 9.54411 18.6441 9.49743 18.4882C9.3574 18.0985 9.46633 17.7555 9.80862 17.5373C10.2132 17.2723 10.6332 17.0228 11.0533 16.7734C11.4423 16.5396 11.5979 16.2122 11.5979 15.7757C11.5979 15.4795 11.5979 15.199 11.5979 14.9028C11.6134 14.4507 11.4423 14.1078 11.0533 13.8739C10.6488 13.6401 10.2598 13.3907 9.8553 13.1413C9.43521 12.8762 9.3263 12.5489 9.513 12.0812C9.55968 11.9409 9.62189 11.8162 9.68413 11.6759C9.87083 11.255 10.182 11.0991 10.6177 11.2082C11.1 11.3174 11.5668 11.4265 12.0491 11.5512C12.4692 11.6603 12.8114 11.5512 13.0915 11.2238C13.2938 10.99 13.5272 10.7718 13.745 10.5691C14.0562 10.2885 14.1495 9.94556 14.0562 9.54025C13.9473 9.057 13.8228 8.58934 13.7139 8.12168C13.605 7.66961 13.7606 7.34224 14.1962 7.15518C14.3051 7.10841 14.414 7.06165 14.5385 7.01489C15.0675 6.81223 15.3631 6.90576 15.6587 7.37342C15.9077 7.76314 16.1566 8.16845 16.39 8.57376C16.6078 8.9323 16.9345 9.08819 17.339 9.08819C17.6658 9.08819 17.9769 9.08819 18.3037 9.08819C18.7082 9.08819 19.0349 8.91671 19.2372 8.55817C19.4862 8.15286 19.7351 7.74755 19.984 7.34225C20.2485 6.92135 20.5753 6.82782 21.042 6.99929C21.1821 7.04606 21.3065 7.10842 21.4466 7.17077C21.8511 7.35784 22.0222 7.66961 21.9133 8.12168C21.8044 8.58934 21.6955 9.057 21.571 9.50908C21.4621 9.96115 21.571 10.3197 21.9133 10.6159C22.1156 10.8029 22.3179 10.99 22.5046 11.2082C22.8002 11.5512 23.158 11.6759 23.6092 11.5512C24.0604 11.4265 24.5116 11.333 24.9628 11.2238C25.4607 11.1147 25.7719 11.2706 25.9741 11.7383C26.0675 11.9565 26.1453 12.1903 26.2075 12.3306H26.2231ZM17.8058 18.7688C19.7351 18.7688 21.291 17.2255 21.291 15.3081C21.291 13.4063 19.7507 11.8474 17.8369 11.8474C15.9232 11.8474 14.3829 13.3907 14.3673 15.2925C14.3673 17.1943 15.9076 18.7688 17.8058 18.7688Z" fill="#19355B"/>
<path d="M33.5669 25.4563C33.6136 24.6924 33.6291 23.9442 33.7225 23.1959C34.0181 20.7329 34.7494 18.4258 36.103 16.3369C37.2232 14.6065 38.6079 13.0788 40.1794 11.7382C41.4085 10.6938 42.6999 9.74284 43.9757 8.76075C44.0068 8.74516 44.0379 8.74517 44.0846 8.71399C44.8937 9.97668 45.516 11.3173 45.8428 12.7826C46.7452 16.7266 45.6561 20.0314 42.6532 22.7127C40.8329 24.3339 38.7791 25.5654 36.4297 26.2513C36.2741 26.2981 36.1341 26.3292 35.9785 26.3604C35.9319 26.3604 35.8852 26.3604 35.7763 26.3604C37.301 21.6682 39.5259 17.3501 42.2175 13.2347C42.1553 13.3127 42.0931 13.375 42.0308 13.453C41.9686 13.5309 41.8908 13.6088 41.8442 13.6868C40.335 15.651 38.8413 17.6307 37.3166 19.5637C35.8852 21.372 34.6405 23.2738 33.7381 25.3939C33.7381 25.4251 33.6914 25.4563 33.6758 25.4874C33.6447 25.4874 33.6136 25.4874 33.598 25.4874L33.5669 25.4563Z" fill="#19355B"/>
<path d="M8.06625 32.2842C11.5358 35.7605 15.021 39.2524 18.4906 42.7286C17.0747 44.1472 15.6589 45.5814 14.2275 46.9999C10.7579 43.5081 7.2572 40.0162 3.7876 36.5399C5.20344 35.1213 6.63483 33.7028 8.05068 32.2842H8.06625ZM10.8668 37.5688C10.4934 37.5999 10.26 37.7246 10.1511 37.9897C10.0266 38.3014 10.12 38.5508 10.3534 38.7691C11.8781 40.2968 13.4029 41.8245 14.9432 43.3678C15.2544 43.6795 15.6745 43.6951 15.939 43.4145C16.2035 43.1339 16.1879 42.7442 15.8767 42.4324C14.3364 40.8892 12.8117 39.3459 11.2713 37.8182C11.1469 37.6935 10.9602 37.6311 10.8668 37.5688Z" fill="#19355B"/>
<path d="M35.465 4.33366C35.2938 6.00165 34.2981 7.29552 33.5046 8.66732C32.7422 9.99236 32.0109 11.3486 31.8554 12.8763C31.7464 13.9831 31.7931 15.121 31.7776 16.2278C31.7776 16.5864 31.7776 16.9293 31.7776 17.2879C31.7465 17.3035 31.6998 17.3191 31.6687 17.3502C31.2019 16.867 30.7196 16.3993 30.284 15.8849C29.3971 14.8093 28.7592 13.5934 28.4947 12.206C28.168 10.5692 28.6969 9.15058 29.5682 7.79436C30.5173 6.31343 31.6842 5.00398 32.8511 3.67894C33.1623 3.3204 33.489 2.96185 33.7847 2.58772C34.0958 2.198 34.407 1.7927 34.656 1.3718C34.9049 0.950907 35.076 0.48325 35.2939 0C35.3872 0.12471 35.4961 0.233824 35.5739 0.358534C36.7875 2.07329 37.6277 3.92836 37.7677 6.06401C37.8299 7.10845 37.6432 8.09054 37.2542 9.05704C36.523 10.8342 35.4806 12.4398 34.4226 14.0298C33.9714 14.6846 33.5513 15.3549 33.0378 16.0408C33.0223 15.4172 32.96 14.7937 32.9756 14.1701C33.0223 12.9854 33.2868 11.8474 33.7847 10.7562C34.4693 9.2597 35.076 7.732 35.3716 6.11077C35.4806 5.54958 35.5117 4.9728 35.5739 4.39602C35.5428 4.39602 35.5117 4.38042 35.4806 4.36483L35.465 4.33366Z" fill="#19355B"/>
<path d="M31.6066 20.7173C31.8867 20.655 32.1512 20.5926 32.4157 20.5303C32.7268 20.4523 32.8824 20.6082 33.0069 20.8732C33.1158 21.1382 33.1158 21.372 32.8357 21.5279C32.7735 21.5591 32.7113 21.6215 32.6335 21.6526C32.0422 21.8709 31.9022 22.3386 31.98 22.8998C31.9956 23.0556 32.1045 23.2271 32.229 23.3362C32.4157 23.4921 32.6335 23.6012 32.8513 23.726C33.1158 23.8974 33.1158 24.1312 33.0069 24.3963C32.898 24.6457 32.7424 24.8016 32.4468 24.708C32.369 24.6768 32.2757 24.6769 32.1823 24.6457C31.5755 24.3651 31.171 24.6613 30.8287 25.1133C30.7353 25.2381 30.7197 25.4407 30.7353 25.6122C30.7509 25.846 30.8442 26.0954 30.8909 26.3293C30.9531 26.641 30.7664 26.7657 30.5175 26.8593C30.2686 26.9528 30.0663 26.9528 29.9107 26.7034C29.8485 26.6099 29.7862 26.5163 29.7396 26.4228C29.5373 25.9551 29.2105 25.7525 28.6971 25.7993C28.3704 25.8304 28.137 25.9084 27.997 26.189C27.9348 26.3137 27.8414 26.4384 27.7636 26.5631C27.5302 26.9372 27.4213 26.984 27.0635 26.8437C26.6901 26.6878 26.6278 26.5631 26.7367 26.1422C26.7367 26.0799 26.7679 26.0175 26.7834 25.9395C26.939 25.2536 26.8456 24.9886 26.27 24.5989C26.1766 24.5366 26.021 24.521 25.8966 24.5366C25.6943 24.5522 25.5076 24.6145 25.3053 24.6613C24.8541 24.7704 24.7452 24.7236 24.5585 24.2871C24.4341 23.9754 24.4963 23.8351 24.8541 23.6324C24.9475 23.5857 25.0253 23.5233 25.103 23.4765C25.5698 23.1648 25.7565 22.6971 25.5543 22.1671C25.5076 22.058 25.4142 21.9488 25.3053 21.8709C25.1653 21.7618 24.9786 21.6682 24.823 21.5747C24.4185 21.3253 24.3874 21.1694 24.5896 20.7485C24.6985 20.5303 24.8386 20.4523 25.0719 20.5147C25.1497 20.5303 25.2275 20.5303 25.3053 20.5614C25.881 20.8109 26.3478 20.6862 26.6745 20.1561C26.7678 20.0002 26.8145 19.7976 26.8145 19.6105C26.8145 19.4079 26.7367 19.2052 26.6745 19.0026C26.5967 18.6908 26.69 18.5037 27.0012 18.379C27.2968 18.2699 27.5147 18.2855 27.6703 18.5817C27.717 18.6596 27.7792 18.722 27.8103 18.8155C28.0126 19.2832 28.3393 19.4702 28.8527 19.4235C29.1794 19.3923 29.4128 19.3143 29.5529 19.0337C29.6151 18.909 29.6929 18.7843 29.7707 18.6596C30.004 18.2855 30.113 18.2387 30.4708 18.379C30.8442 18.5349 30.8909 18.644 30.7975 19.0805C30.782 19.174 30.7664 19.252 30.7353 19.3455C30.5953 19.9223 30.782 20.3432 31.311 20.6394C31.3888 20.6861 31.4977 20.6862 31.5755 20.7173H31.6066ZM28.7749 20.842C27.7792 20.842 26.9857 21.6526 27.0012 22.6191C27.0012 23.6012 27.8258 24.3963 28.7905 24.3807C29.7707 24.3651 30.5486 23.5545 30.5486 22.5724C30.5486 21.5747 29.7551 20.8264 28.7749 20.8264V20.842Z" fill="#19355B"/>
<path d="M4.45659 24.4587C5.43679 24.4587 6.41699 24.4587 7.38164 24.4587C7.91063 24.4587 8.23735 24.7237 8.23735 25.1758C8.23735 25.6435 7.92619 25.9241 7.38164 25.9397C5.40568 25.9397 3.42972 25.9397 1.45376 25.9397C1.03368 25.9397 0.753603 25.7526 0.660251 25.4097C0.566898 25.0823 0.660272 24.8017 0.92477 24.6146C1.08036 24.5211 1.29816 24.4743 1.48486 24.4743C2.46506 24.4743 3.46081 24.4743 4.44101 24.4743L4.45659 24.4587Z" fill="#19355B"/>
<path d="M7.52158 23.3518C6.69697 23.3518 5.88789 23.3518 5.06327 23.3518C4.51872 23.3518 4.192 23.0712 4.20756 22.6035C4.20756 22.167 4.53428 21.8708 5.06327 21.8708C6.7125 21.8708 8.36176 21.8708 10.011 21.8708C10.4311 21.8708 10.7111 22.0579 10.8045 22.3853C10.9445 22.8685 10.6178 23.3206 10.0888 23.3362C9.23303 23.3362 8.37731 23.3362 7.52158 23.3362V23.3518Z" fill="#19355B"/>
</svg>
