<svg width="43" height="48" viewBox="0 0 43 48" fill="none" xmlns="http://www.w3.org/2000/svg">
<path d="M22.3072 48C21.4664 47.8866 20.6095 47.8219 19.7687 47.6599C18.1519 47.3521 16.5512 46.9147 14.9181 46.6555C12.0886 46.2343 9.24296 45.8941 6.39728 45.5539C4.65107 45.3433 2.88868 45.2299 1.14247 45.0679C0.722087 45.0355 0.51188 44.7601 0.495711 44.3551C0.479543 43.9825 0.495711 43.6099 0.495711 43.2373C0.495711 41.0827 0.495711 38.9282 0.495711 36.7736C0.495711 35.9636 0.673567 35.7854 1.482 35.7854C3.11503 35.7854 4.76425 35.7854 6.39728 35.7854C6.62364 35.7854 6.8985 35.7044 7.07636 35.5586C9.48549 33.728 12.2342 33.1448 15.1607 33.5498C16.6967 33.7604 18.2004 34.2302 19.6879 34.6514C22 35.3318 24.3283 35.3318 26.6889 35.024C27.9824 34.862 29.2921 34.781 30.6017 34.7972C31.1515 34.7972 31.7659 35.0888 32.2348 35.3966C33.5121 36.2066 33.5767 37.7942 32.3803 38.7338C31.2808 39.6086 29.9711 40.0135 28.6453 40.4023C28.0632 40.5805 27.4812 40.7263 26.9153 40.9207C30.1975 40.7101 33.1402 39.6248 35.6625 37.5026C36.5356 36.7736 37.3279 35.9474 38.1686 35.1698C38.5729 34.7972 39.0094 34.457 39.446 34.1492C40.125 33.6794 40.9496 33.6794 41.5479 34.133C42.2108 34.6352 42.5018 35.2994 42.2755 36.1094C42.1623 36.5144 42.0168 36.9194 41.7904 37.2758C40.2544 39.6248 38.5082 41.7955 36.1799 43.4317C34.4337 44.6629 32.5581 45.6187 30.5694 46.3963C29.2597 46.9147 27.9824 47.5465 26.5596 47.7571C26.0583 47.8381 25.5409 47.9029 25.0397 47.9839H22.3234L22.3072 48Z" fill="#19355B"/>
<path d="M25.1043 29.0787C23.7623 29.0787 22.4204 29.0787 21.0784 29.0787C20.3508 29.0787 20.1406 28.8519 20.1244 28.1229C20.1244 27.4587 20.1244 26.7783 20.1244 26.1141C20.1244 24.1539 19.4777 22.5178 18.0063 21.157C15.8559 19.1482 14.8049 16.6048 14.8049 13.6727C14.8211 7.58154 20.0597 2.8998 26.123 3.54779C31.4586 4.11478 35.5331 8.73173 35.3553 14.0129C35.2582 16.8316 34.2396 19.2454 32.2024 21.2056C30.731 22.615 29.9711 24.2835 30.0519 26.3409C30.0843 26.9565 30.0519 27.5559 30.0519 28.1715C30.0519 28.8357 29.7771 29.0949 29.1142 29.0949C27.7722 29.0949 26.4302 29.0949 25.0882 29.0949L25.1043 29.0787ZM21.143 19.9582C21.3694 19.8448 21.5796 19.78 21.7089 19.6666C22.097 19.3264 22.4365 19.294 22.9216 19.537C23.2773 19.7152 23.245 19.9906 23.3258 20.266C23.5037 20.8816 23.6654 21.0112 24.3121 21.0274C24.7648 21.0274 25.2175 21.0274 25.6703 21.0274C26.6889 21.0274 26.8021 20.9464 26.9476 19.9582C26.9799 19.699 27.0931 19.5856 27.3194 19.456C27.756 19.213 28.0632 19.3102 28.4351 19.6018C28.9363 20.0068 29.2435 19.9582 29.6962 19.5046C30.0358 19.1806 30.3591 18.8404 30.6825 18.5164C31.3131 17.8846 31.3293 17.6578 30.8281 16.945C30.4077 16.3456 30.6987 15.6976 31.4263 15.5842C31.588 15.5518 31.782 15.5842 31.879 15.4708C32.0569 15.2926 32.2994 15.0658 32.3156 14.839C32.3641 14.3045 32.2832 13.7537 32.2832 13.2029C32.2832 12.2957 32.1539 12.1499 31.2808 12.0203C30.9897 11.9879 30.8442 11.8583 30.6987 11.5991C30.44 11.1617 30.6017 10.8701 30.8604 10.5137C31.2484 9.99531 31.2161 9.68751 30.7634 9.23392C30.3915 8.86132 30.0196 8.47253 29.6316 8.09993C29.1627 7.63014 28.8555 7.58154 28.3219 8.00274C27.9662 8.27813 27.6752 8.37533 27.2386 8.13234C26.9799 7.98654 26.8667 7.85694 26.8344 7.58154C26.7051 6.65815 26.5757 6.54475 25.6379 6.54475C25.2499 6.54475 24.8618 6.54475 24.4738 6.54475C23.4551 6.54475 23.342 6.62575 23.2126 7.61394C23.1803 7.87314 23.0509 7.98654 22.8246 8.11613C22.4042 8.35913 22.097 8.27813 21.7413 8.00274C21.1915 7.58154 20.9005 7.61394 20.3993 8.11613C20.0759 8.44013 19.7525 8.76413 19.4453 9.07192C18.8147 9.70371 18.7824 9.93051 19.2998 10.6271C19.51 10.9025 19.5423 11.1293 19.3968 11.4695C19.2513 11.8259 19.0573 11.9717 18.6854 12.0041C17.9255 12.0851 17.7638 12.2957 17.7638 13.0571C17.7638 13.5107 17.7638 13.9643 17.7638 14.4179C17.7638 15.3412 17.877 15.487 18.7986 15.6166C19.0735 15.649 19.2028 15.7786 19.3483 16.0216C19.607 16.459 19.4777 16.7506 19.2028 17.107C18.7986 17.6416 18.8471 17.9494 19.316 18.4192C19.704 18.808 20.0759 19.213 20.4801 19.5694C20.658 19.7314 20.8843 19.8286 21.1107 19.9582H21.143Z" fill="#19355B"/>
<path d="M21.7253 30.488H28.403C28.306 31.7516 26.7376 33.0314 25.2339 33.08C23.5847 33.1448 21.9679 31.946 21.7253 30.488Z" fill="#19355B"/>
<path d="M31.0058 4.37399C30.3752 4.39019 29.9872 3.82319 30.2135 3.3048C30.4399 2.81881 30.7309 2.34901 31.0381 1.89542C31.2645 1.58762 31.6202 1.53902 31.9597 1.73342C32.3155 1.94402 32.4448 2.28421 32.267 2.65681C32.0244 3.1428 31.7334 3.6126 31.4262 4.06619C31.313 4.22819 31.0866 4.30919 30.9896 4.35779L31.0058 4.37399Z" fill="#19355B"/>
<path d="M37.0854 20.1849C37.0692 20.7843 36.4871 21.1569 36.0182 20.9301C35.5493 20.7033 35.0805 20.4279 34.6439 20.1363C34.3205 19.9257 34.2559 19.5693 34.4337 19.2291C34.6116 18.8727 34.9673 18.6945 35.3391 18.8565C35.8565 19.0995 36.3416 19.4073 36.8105 19.7313C36.9722 19.8447 37.0369 20.0877 37.0854 20.1849Z" fill="#19355B"/>
<path d="M13.8673 6.31799C14.5302 6.77159 15.1446 7.12798 15.6782 7.59778C15.8076 7.69498 15.7429 8.21337 15.5974 8.37537C15.4357 8.55356 15.0153 8.68316 14.7889 8.60216C14.2877 8.40777 13.8026 8.11617 13.3823 7.77597C13.2044 7.63018 13.1074 7.22518 13.1882 6.99838C13.2691 6.75539 13.5763 6.59339 13.8673 6.31799Z" fill="#19355B"/>
<path d="M13.7379 21.0759C13.5439 20.9139 13.2691 20.7843 13.1559 20.5737C13.0104 20.2659 13.0589 19.9095 13.3661 19.6989C13.8026 19.4073 14.2553 19.1319 14.7242 18.9052C15.0476 18.7432 15.4195 18.808 15.5973 19.1158C15.7267 19.3263 15.7752 19.7637 15.6459 19.9257C15.1931 20.5089 14.4979 20.7843 13.7379 21.0921V21.0759Z" fill="#19355B"/>
<path d="M37.1014 7.33855C37.0206 7.43575 36.9074 7.71115 36.7134 7.85694C36.3739 8.11614 35.9858 8.32674 35.5978 8.52114C35.1936 8.73173 34.7085 8.63453 34.5306 8.29434C34.3204 7.93794 34.466 7.46815 34.8702 7.22515C35.2582 6.98215 35.6301 6.73916 36.0343 6.54476C36.5679 6.28556 37.0853 6.60956 37.1014 7.33855Z" fill="#19355B"/>
<path d="M20.1409 3.61257C19.9307 3.90416 19.8175 4.22816 19.6235 4.27676C19.3648 4.34156 18.9444 4.27676 18.7827 4.09856C18.4108 3.69357 18.1036 3.20757 17.8772 2.68918C17.7802 2.47858 17.8772 2.02499 18.0551 1.86299C18.233 1.71719 18.7665 1.66859 18.8797 1.79819C19.3486 2.34898 19.7043 2.96457 20.1247 3.61257H20.1409Z" fill="#19355B"/>
<path d="M37.3603 13.0247C37.5866 13.0247 37.8292 13.0247 38.0555 13.0247C38.5083 13.0409 38.7669 13.3001 38.7669 13.7212C38.7669 14.1748 38.5406 14.434 38.0555 14.4664C37.5867 14.4826 37.1177 14.4826 36.6489 14.4664C36.1961 14.4502 35.9536 14.1748 35.9536 13.7536C35.9536 13.3163 36.2285 13.0571 36.6974 13.0409C36.9075 13.0409 37.1339 13.0409 37.3603 13.0409V13.0247Z" fill="#19355B"/>
<path d="M25.7833 1.39318C25.7833 1.65238 25.7994 1.92778 25.7833 2.18697C25.7509 2.59197 25.5084 2.80256 25.1042 2.81876C24.7161 2.81876 24.3928 2.57577 24.3604 2.18697C24.3281 1.65238 24.3281 1.13399 24.3604 0.599393C24.3928 0.194398 24.6676 0 25.0557 0C25.4437 0 25.7186 0.194398 25.7509 0.599393C25.7833 0.85859 25.7509 1.13399 25.7509 1.39318H25.7833Z" fill="#19355B"/>
<path d="M12.7352 14.4501C12.4927 14.4501 12.234 14.4663 11.9915 14.4501C11.5711 14.4177 11.3447 14.1424 11.3447 13.7374C11.3447 13.3324 11.5873 13.0408 12.0076 13.0246C12.525 13.0084 13.0424 12.9922 13.5437 13.0246C13.9479 13.0408 14.1581 13.3 14.1581 13.705C14.1581 14.0938 13.964 14.3691 13.576 14.4339C13.3011 14.4663 13.0101 14.4339 12.7352 14.4339V14.4501Z" fill="#19355B"/>
<path d="M20.6417 9.86563C20.7872 9.67123 20.9004 9.52543 21.0136 9.36344C21.0621 9.36344 21.1106 9.34724 21.1268 9.36344C21.6927 9.91423 22.2748 9.96283 22.9215 9.47683C23.0832 9.34724 23.3257 9.29864 23.5359 9.25004C24.1018 9.12044 24.4575 8.81264 24.4898 8.19705C24.4898 8.08365 24.5383 7.98645 24.5707 7.87305C24.6677 7.87305 24.7647 7.87305 24.8455 7.84065C25.2659 7.77586 25.5085 7.90545 25.5408 8.37525C25.5731 8.81264 25.848 9.05564 26.2684 9.18524C26.6241 9.29864 26.9798 9.41203 27.3032 9.60643C27.8044 9.91423 28.241 9.88183 28.6613 9.47683C28.726 9.41203 28.8069 9.36344 28.9524 9.28244C29.1141 9.47683 29.2758 9.68743 29.4698 9.91423C29.3728 10.0438 29.2758 10.1896 29.1626 10.3354C28.9201 10.6432 28.9201 10.951 29.0979 11.2912C29.2919 11.6962 29.4698 12.1174 29.6153 12.5386C29.7447 12.895 29.9225 13.0894 30.3106 13.0894C30.5531 13.0894 30.7956 13.1542 31.0705 13.2028C31.0705 13.3486 31.0705 13.4944 31.1028 13.624C31.1675 13.9966 30.9896 14.1586 30.6339 14.191C30.1004 14.2234 29.8417 14.5312 29.7123 15.0334C29.6315 15.3412 29.5183 15.6652 29.3404 15.9406C29.0171 16.4589 29.0332 16.8963 29.4536 17.3337C29.5183 17.3985 29.5506 17.4795 29.6315 17.5929C29.4213 17.7387 29.2273 17.9007 28.9686 18.0951C29.0656 18.0951 29.0171 18.1113 29.0009 18.0951C28.435 17.5443 27.8529 17.4957 27.2062 17.9655C26.996 18.1113 26.7211 18.1923 26.4624 18.2409C25.9774 18.3543 25.7025 18.6459 25.654 19.1481C25.6216 19.4721 25.5085 19.6341 25.1366 19.6179C24.7971 19.6179 24.6354 19.5207 24.603 19.1643C24.5707 18.6621 24.2796 18.3543 23.7623 18.2409C23.455 18.1599 23.1317 18.0465 22.8568 17.8683C22.3556 17.5443 21.9029 17.5281 21.4663 17.9655C21.4016 18.0303 21.3208 18.0789 21.2238 18.1437C21.0459 17.9655 20.8681 17.7711 20.6741 17.5767C20.8034 17.4309 21.0136 17.3013 21.0459 17.1231C21.1106 16.8801 21.1106 16.5723 21.0459 16.3293C20.9328 15.9406 20.674 15.6004 20.577 15.2116C20.4315 14.6446 20.1081 14.353 19.5422 14.3044C19.4291 14.3044 19.332 14.2396 19.1865 14.2072C19.1865 14.0614 19.1865 13.8994 19.1865 13.7536C19.1542 13.4782 19.235 13.3162 19.5584 13.2838C20.1243 13.2514 20.4638 12.9436 20.577 12.3766C20.6417 12.085 20.7549 11.761 20.9327 11.518C21.2723 10.9996 21.2399 10.5622 20.8357 10.1248C20.7711 10.06 20.7225 9.97903 20.6579 9.86563H20.6417ZM25.0396 17.0583C26.8666 17.0583 28.3865 15.5842 28.3865 13.7536C28.3865 11.8906 26.9475 10.4002 25.1043 10.384C23.2287 10.384 21.7412 11.842 21.725 13.7212C21.725 15.5842 23.1802 17.0583 25.0396 17.0583Z" fill="#19355B"/>
<path d="M25.056 11.8421C26.1069 11.8421 26.9639 12.7007 26.9639 13.7375C26.9639 14.7581 26.107 15.6167 25.0883 15.6167C24.0535 15.6167 23.1804 14.7419 23.1804 13.7051C23.1804 12.6845 24.0374 11.8259 25.056 11.8259V11.8421Z" fill="#19355B"/>
</svg>
