<svg width="58" height="47" viewBox="0 0 58 47" fill="none" xmlns="http://www.w3.org/2000/svg">
<path d="M23.526 31.1028C22.7233 35.6452 24.1984 39.4487 26.2592 43.3826C26.3677 42.9479 26.4544 42.7305 26.4761 42.4915C26.6714 40.8614 26.5846 39.1879 27.4306 37.6447C27.6041 37.3622 27.0184 36.645 26.7364 36.0364C27.0835 35.6017 27.5391 35.0801 28.038 34.4715C27.0401 33.5587 26.1074 32.6676 25.1312 31.8417C24.4587 31.2766 24.1767 30.6463 24.2635 29.7335C24.372 28.7337 24.3069 27.7122 24.2418 26.6907C24.1984 26.0387 23.9598 25.5171 23.5043 24.9302C23.027 24.3217 23.027 23.235 22.9836 22.3656C22.9403 21.8005 23.2006 21.2137 23.2657 20.6269C23.3307 19.8879 23.2439 19.1272 23.4175 18.41C24.1984 15.0847 28.1031 13.5415 31.0532 15.2151C33.0055 16.3235 33.8949 17.8884 33.8082 20.1053C33.7865 20.8659 34.0901 21.6484 34.1335 22.4308C34.1986 23.4306 34.242 24.4521 33.3092 25.1911C33.0923 25.3649 32.9188 25.7562 32.8971 26.0604C32.8103 27.408 32.8537 28.7555 32.7452 30.103C32.7018 30.5811 32.5066 31.168 32.1812 31.5157C31.2051 32.5372 30.1204 33.45 29.0141 34.4715C29.5131 35.0584 29.9469 35.6017 30.4242 36.1668C30.294 36.3624 30.1855 36.558 30.0337 36.6667C29.3829 37.1231 29.5564 37.5795 29.7951 38.2316C30.1638 39.2748 30.294 40.3832 30.4892 41.47C30.5977 42.0133 30.5977 42.5784 30.6628 43.1435C30.7712 43.1652 30.9014 43.2087 31.0098 43.2304C31.7691 41.3178 32.7669 39.4704 33.2441 37.4926C33.7214 35.4931 33.678 33.3848 33.8732 31.3418C36.4546 32.6893 39.3831 33.3414 42.2682 34.1238C43.3962 34.4281 44.1337 35.1018 44.4374 36.1886C45.0014 38.2316 45.457 40.318 46.021 42.3828C46.2596 43.2522 45.9342 43.5999 45.1749 43.8607C37.3006 46.7079 29.2528 47.8815 20.9663 46.2732C17.8643 45.6647 14.849 44.6432 11.7904 43.8173C11.0962 43.6216 10.7925 43.2739 11.0094 42.4915C11.5951 40.3833 12.0724 38.2316 12.6581 36.1016C12.9618 34.9932 13.7427 34.4064 14.8707 34.1021C17.1484 33.4935 19.4044 32.798 21.6604 32.0808C22.2244 31.9069 22.7233 31.5374 23.526 31.1245V31.1028Z" fill="#19355B"/>
<path d="M28.7321 5.45645C28.4718 6.43448 26.6063 6.54316 27.3655 8.4123C28.103 10.2162 29.513 8.97738 30.4675 9.62941V14.0414C30.1421 13.9328 29.8818 13.8024 29.5998 13.7806C28.7538 13.7372 27.7777 13.4764 27.0401 13.7806C23.9164 15.0412 22.3546 16.3235 22.5281 19.9966C22.5498 20.6704 22.4413 21.1051 21.7038 21.2355C21.0096 21.3659 21.0964 21.9092 21.0747 22.4308C21.053 24.4086 21.4001 24.1913 19.3176 24.213C18.3632 24.213 17.4304 24.1913 16.4759 24.213C15.9119 24.213 15.6733 24.0174 15.7167 23.4523C15.7384 23.1915 15.7167 22.909 15.7167 22.6482C15.7167 21.5615 15.0008 20.7356 13.9379 20.7138C13.721 20.7138 13.439 20.8877 13.2655 21.0616C12.8316 21.4963 12.4628 21.9744 12.094 22.3874C10.8142 21.0399 9.64281 19.801 8.47142 18.5839C8.36296 18.6274 8.27619 18.6708 8.16773 18.7143C8.51481 18.3448 8.79681 17.9536 9.18728 17.6493C9.88143 17.106 9.98989 16.5843 9.62112 15.7584C9.29573 14.9977 8.88358 14.7804 8.10266 14.8022C6.10696 14.8239 6.32388 15.063 6.30219 13.0417C6.30219 12.1288 6.32388 11.216 6.30219 10.3032C6.28049 9.62942 6.5625 9.36859 7.19158 9.45553C7.38681 9.47726 7.60373 9.45553 7.79897 9.45553C9.18728 9.45553 9.64283 9.12953 9.88145 7.73854C9.92483 7.49947 9.7513 7.17344 9.57776 6.97783C9.12222 6.49968 8.60159 6.065 8.14605 5.65205C9.44759 4.32626 10.6407 3.13088 11.8988 1.84856C12.2242 2.15284 12.593 2.45713 12.875 2.80487C13.3739 3.36996 13.7861 3.7177 14.6754 3.32649C15.5648 2.93527 15.8469 2.43539 15.7167 1.54429C15.7167 1.47908 15.7167 1.41389 15.7167 1.34869C15.7167 0.450341 16.1505 0.00116233 17.0182 0.00116233C18.0595 0.00116233 19.1224 0.0228965 20.1636 0.00116233C20.8361 -0.0205719 21.0964 0.261981 21.0313 0.892272C21.0313 1.00094 21.0313 1.08788 21.0313 1.19655C21.0313 2.82661 21.3133 3.17435 22.8752 3.47863C23.1138 3.5221 23.4392 3.34824 23.6344 3.15263C24.1116 2.67448 24.5455 2.15286 24.936 1.6747C26.2592 3.02222 27.474 4.2176 28.7321 5.47819V5.45645ZM18.4716 6.08674C15.1744 6.04327 12.4412 8.69484 12.3978 11.9984C12.3544 15.302 15.0008 18.0188 18.2981 18.084C21.5953 18.1492 24.3069 15.4976 24.3719 12.1723C24.437 8.89044 21.7472 6.13021 18.4716 6.08674Z" fill="#19355B"/>
<path d="M45.869 36.6233C45.3918 34.928 44.9363 33.3632 44.5458 31.7983C44.3289 30.9507 44.2204 30.0813 44.0252 29.2119C43.7432 28.0383 43.1358 27.2559 41.8126 27.0603C40.4459 26.8429 40.4242 26.5821 40.7062 25.2346C41.0316 23.7132 41.1835 22.1701 41.4872 20.6269C41.7041 19.5402 41.9644 18.4535 42.3549 17.4103C42.9406 15.8454 44.2421 15.0847 45.8473 15.0847C47.3875 15.0847 48.7541 15.7585 49.2964 17.2799C49.7737 18.6057 50.034 20.0184 50.316 21.3876C50.6197 22.8438 50.8149 24.3217 51.162 25.7562C51.2921 26.3213 51.162 26.5821 50.7064 26.7994C50.5546 26.8646 50.4027 26.9733 50.2292 26.995C48.2118 27.1037 47.7563 28.5382 47.4526 30.1682C47.2356 31.3202 46.5415 32.6242 46.8452 33.6022C47.2356 34.8193 46.4764 35.4062 46.2595 36.2755C46.2595 36.3625 46.1293 36.4059 45.869 36.645V36.6233Z" fill="#19355B"/>
<path d="M47.4308 42.8393C47.1922 41.7309 46.9752 40.7746 46.8017 39.8183C46.7583 39.5357 46.7583 39.188 46.8451 38.9272C47.4525 37.2536 48.0816 35.5801 48.754 33.7762C49.3397 34.0152 49.9688 34.2543 50.7714 34.5803C50.4243 32.7981 50.1206 31.1246 49.7952 29.4076C51.7909 29.864 53.7433 30.277 55.6522 30.7986C56.0426 30.9073 56.4765 31.4723 56.5416 31.907C56.9754 34.3413 57.3225 36.7972 57.6696 39.2315C57.713 39.4705 57.5394 39.9052 57.3659 39.9704C54.1988 41.3397 50.945 42.4481 47.4091 42.8393H47.4308Z" fill="#19355B"/>
<path d="M2.83151 23.5393C3.41721 23.7349 4.04627 24.1696 4.30658 24.0174C4.74043 23.7566 4.93566 23.1046 5.3912 22.3656C5.75997 22.3656 6.45412 22.3222 7.14828 22.3874C7.34351 22.3874 7.66891 22.7134 7.66891 22.909C7.6906 23.4523 7.73399 23.9957 8.38476 24.0174C8.77522 24.0174 9.16567 23.7132 9.55613 23.5393C9.66459 23.4958 9.77307 23.3871 9.94661 23.2785C10.5323 23.887 11.0963 24.4956 11.7254 25.1693C11.5518 25.3867 11.3566 25.604 11.1831 25.8214C10.7275 26.4082 11.0312 27.2993 11.7688 27.2993C12.5714 27.2993 12.7449 27.6688 12.6798 28.3643C12.6365 28.7338 12.7449 29.125 12.6582 29.4727C12.5931 29.6901 12.3328 30.0161 12.1592 30.0378C11.5952 30.0378 11.0746 30.1465 11.0529 30.7768C11.0529 31.168 11.3566 31.5592 11.5518 31.9504C11.5952 32.0374 11.6603 32.1025 11.8122 32.3199C11.1614 32.8632 10.5106 33.4283 9.83814 33.9934C8.27629 32.9067 7.86415 33.0371 7.64722 34.928H5.10922C4.63199 32.9502 4.37165 32.8198 2.87487 34.0152C2.28918 33.4066 1.6818 32.798 1.05272 32.146C1.24795 31.9287 1.48658 31.7548 1.57335 31.5157C1.68181 31.2332 1.81196 30.8637 1.7035 30.6463C1.59504 30.4073 1.22628 30.103 1.00936 30.1247C0.141666 30.1899 -0.0535805 29.777 0.0114967 29.038C0.0548814 28.6685 -0.0319 28.2773 0.0331771 27.9296C0.0765619 27.7122 0.315202 27.3862 0.532126 27.3428C2.05059 26.9733 2.20242 26.6255 1.22626 25.4519C1.16119 25.3867 1.13951 25.278 1.07444 25.1259C1.68182 24.5608 2.28918 24.0174 2.8098 23.5393H2.83151ZM9.51277 28.7337C9.51277 26.9733 8.14615 25.5606 6.38906 25.5388C4.65367 25.5171 3.20027 26.9298 3.15689 28.6468C3.13519 30.3638 4.56688 31.8417 6.30227 31.8635C8.03767 31.8635 9.49108 30.4507 9.51277 28.7337Z" fill="#19355B"/>
<path d="M41.8994 29.364C41.6825 30.4507 41.4872 31.4505 41.2486 32.5807C39.4048 32.0156 37.7128 31.494 35.7388 30.8854C37.9514 30.342 39.8603 29.8639 41.8994 29.364Z" fill="#19355B"/>
</svg>
