<svg width="39" height="38" viewBox="0 0 39 38" fill="none" xmlns="http://www.w3.org/2000/svg">
<ellipse cx="19.5" cy="19" rx="19.5" ry="19" fill="#19355B"/>
<mask id="mask0_159_622" style="mask-type:alpha" maskUnits="userSpaceOnUse" x="7" y="7" width="25" height="24">
<rect x="31.9998" y="31" width="24" height="24" transform="rotate(-180 31.9998 31)" fill="#FCFCFC"/>
</mask>
<g mask="url(#mask0_159_622)">
<path d="M18.4786 13.8885C18.6337 14.0436 18.7087 14.2244 18.7036 14.4308C18.6985 14.6372 18.6183 14.8179 18.4632 14.9731L15.1863 18.25L26.9517 18.25C27.1642 18.25 27.3423 18.3219 27.486 18.4657C27.6298 18.6096 27.7017 18.7878 27.7017 19.0003C27.7017 19.2129 27.6298 19.391 27.486 19.5346C27.3423 19.6782 27.1642 19.75 26.9517 19.75L15.1863 19.75L18.4882 23.052C18.6369 23.199 18.7113 23.3735 18.7113 23.5757C18.7113 23.7778 18.6337 23.9564 18.4786 24.1115C18.3235 24.2667 18.1453 24.3442 17.944 24.3442C17.7427 24.3442 17.5645 24.2667 17.4094 24.1115L12.9305 19.6327C12.837 19.5391 12.7709 19.44 12.7325 19.3353C12.694 19.2306 12.6748 19.1184 12.6748 18.9987C12.6748 18.8791 12.694 18.7673 12.7325 18.6635C12.7709 18.5596 12.837 18.4609 12.9305 18.3673L17.4344 13.8635C17.5696 13.725 17.7387 13.6558 17.9416 13.6558C18.1445 13.6558 18.3235 13.7334 18.4786 13.8885Z" fill="#FCFCFC"/>
</g>
</svg>
