<svg width="20" height="16" viewBox="0 0 20 16" fill="none" xmlns="http://www.w3.org/2000/svg">
<path d="M2.7196 15.5C2.21412 15.5 1.78625 15.325 1.43601 14.975C1.08577 14.625 0.910645 14.1974 0.910645 13.6922V2.3077C0.910645 1.80257 1.08577 1.375 1.43601 1.025C1.78625 0.675 2.21412 0.5 2.7196 0.5H18.1148C18.6203 0.5 19.0482 0.675 19.3984 1.025C19.7487 1.375 19.9238 1.80257 19.9238 2.3077V13.6922C19.9238 14.1974 19.7487 14.625 19.3984 14.975C19.0482 15.325 18.6203 15.5 18.1148 15.5H2.7196ZM18.4228 3.44225L10.9041 8.25187C10.8271 8.29546 10.7476 8.32975 10.6655 8.35475C10.5834 8.37975 10.5006 8.39225 10.4172 8.39225C10.3338 8.39225 10.2511 8.37975 10.169 8.35475C10.0869 8.32975 10.0073 8.29546 9.93036 8.25187L2.41166 3.44225V13.6922C2.41166 13.782 2.44053 13.8557 2.49827 13.9134C2.55601 13.9711 2.62979 14 2.7196 14H18.1148C18.2046 14 18.2784 13.9711 18.3362 13.9134C18.3939 13.8557 18.4228 13.782 18.4228 13.6922V3.44225ZM10.4172 6.99997L18.2688 1.99997H2.56562L10.4172 6.99997ZM2.41166 3.673V2.52977V2.55957V2.52785V3.673Z" fill="#FCFCFC"/>
</svg>
